<svg xmlns="http://www.w3.org/2000/svg" width="176" height="158" viewBox="0 0 176 158">
    <g fill="none" fill-rule="evenodd">
        <g fill="#A7E3FF">
            <path d="M1016.047 2015.328c3.132-1.078 6.546.587 7.625 3.72 1.078 3.131-.587 6.545-3.72 7.624-3.131 1.078-6.545-.587-7.624-3.72-1.078-3.131.587-6.545 3.72-7.624zm26-8c3.132-1.078 6.546.587 7.625 3.72 1.078 3.131-.587 6.545-3.72 7.624-3.131 1.078-6.545-.587-7.624-3.72-1.078-3.131.587-6.545 3.72-7.624zm24-10c3.132-1.078 6.546.587 7.625 3.72 1.078 3.131-.587 6.545-3.72 7.624-3.131 1.078-6.545-.587-7.624-3.72-1.078-3.131.587-6.545 3.72-7.624zm26-8c3.132-1.078 6.546.587 7.625 3.72 1.078 3.131-.587 6.545-3.72 7.624-3.131 1.078-6.545-.587-7.624-3.72-1.078-3.131.587-6.545 3.72-7.624zm26-10c3.132-1.078 6.546.587 7.625 3.72 1.078 3.131-.587 6.545-3.72 7.624-3.131 1.078-6.545-.587-7.624-3.72-1.078-3.131.587-6.545 3.72-7.624zm26-8c3.132-1.078 6.546.587 7.625 3.72 1.078 3.131-.587 6.545-3.72 7.624-3.131 1.078-6.545-.587-7.624-3.72-1.078-3.131.587-6.545 3.72-7.624zm-138 18c3.132-1.078 6.546.587 7.625 3.72 1.078 3.131-.587 6.545-3.72 7.624-3.131 1.078-6.545-.587-7.624-3.72-1.078-3.131.587-6.545 3.72-7.624zm26-8c3.132-1.078 6.546.587 7.625 3.72 1.078 3.131-.587 6.545-3.72 7.624-3.131 1.078-6.545-.587-7.624-3.72-1.078-3.131.587-6.545 3.72-7.624zm26-10c3.132-1.078 6.546.587 7.625 3.72 1.078 3.131-.587 6.545-3.72 7.624-3.131 1.078-6.545-.587-7.624-3.72-1.078-3.131.587-6.545 3.72-7.624zm26-8c3.132-1.078 6.546.587 7.625 3.72 1.078 3.131-.587 6.545-3.72 7.624-3.131 1.078-6.545-.587-7.624-3.72-1.078-3.131.587-6.545 3.72-7.624zm26-8c3.132-1.078 6.546.587 7.625 3.72 1.078 3.131-.587 6.545-3.72 7.624-3.131 1.078-6.545-.587-7.624-3.72-1.078-3.131.587-6.545 3.72-7.624zm26-10c3.132-1.078 6.546.587 7.625 3.72 1.078 3.131-.587 6.545-3.72 7.624-3.131 1.078-6.545-.587-7.624-3.72-1.078-3.131.587-6.545 3.72-7.624zm-138 18c3.132-1.078 6.546.587 7.625 3.72 1.078 3.131-.587 6.545-3.72 7.624-3.131 1.078-6.545-.587-7.624-3.72-1.078-3.131.587-6.545 3.72-7.624zm26-8c3.132-1.078 6.546.587 7.625 3.72 1.078 3.131-.587 6.545-3.72 7.624-3.131 1.078-6.545-.587-7.624-3.72-1.078-3.131.587-6.545 3.72-7.624zm26-8c3.132-1.078 6.546.587 7.625 3.72 1.078 3.131-.587 6.545-3.72 7.624-3.131 1.078-6.545-.587-7.624-3.72-1.078-3.131.587-6.545 3.72-7.624zm26-10c3.132-1.078 6.546.587 7.625 3.72 1.078 3.131-.587 6.545-3.72 7.624-3.131 1.078-6.545-.587-7.624-3.72-1.078-3.131.587-6.545 3.72-7.624zm24-8c3.132-1.078 6.546.587 7.625 3.72 1.078 3.131-.587 6.545-3.72 7.624-3.131 1.078-6.545-.587-7.624-3.72-1.078-3.131.587-6.545 3.72-7.624zm26-10c3.132-1.078 6.546.587 7.625 3.72 1.078 3.131-.587 6.545-3.72 7.624-3.131 1.078-6.545-.587-7.624-3.72-1.078-3.131.587-6.545 3.72-7.624zm-138 18c3.132-1.078 6.546.587 7.625 3.72 1.078 3.131-.587 6.545-3.72 7.624-3.131 1.078-6.545-.587-7.624-3.72-1.078-3.131.587-6.545 3.72-7.624zm26-8c3.132-1.078 6.546.587 7.625 3.72 1.078 3.131-.587 6.545-3.72 7.624-3.131 1.078-6.545-.587-7.624-3.72-1.078-3.131.587-6.545 3.72-7.624zm26-8c3.132-1.078 6.546.587 7.625 3.72 1.078 3.131-.587 6.545-3.72 7.624-3.131 1.078-6.545-.587-7.624-3.72-1.078-3.131.587-6.545 3.72-7.624zm26-10c3.132-1.078 6.546.587 7.625 3.72 1.078 3.131-.587 6.545-3.72 7.624-3.131 1.078-6.545-.587-7.624-3.72-1.078-3.131.587-6.545 3.72-7.624zm26-8c3.132-1.078 6.546.587 7.625 3.72 1.078 3.131-.587 6.545-3.72 7.624-3.131 1.078-6.545-.587-7.624-3.72-1.078-3.131.587-6.545 3.72-7.624zm26-10c3.132-1.078 6.546.587 7.625 3.72 1.078 3.131-.587 6.545-3.72 7.624-3.131 1.078-6.545-.587-7.624-3.72-1.078-3.131.587-6.545 3.72-7.624zm-138 20c3.132-1.078 6.546.587 7.625 3.72 1.078 3.131-.587 6.545-3.72 7.624-3.131 1.078-6.545-.587-7.624-3.72-1.078-3.131.587-6.545 3.72-7.624zm26-10c3.132-1.078 6.546.587 7.625 3.72 1.078 3.131-.587 6.545-3.72 7.624-3.131 1.078-6.545-.587-7.624-3.72-1.078-3.131.587-6.545 3.72-7.624zm26-8c3.132-1.078 6.546.587 7.625 3.72 1.078 3.131-.587 6.545-3.72 7.624-3.131 1.078-6.545-.587-7.624-3.72-1.078-3.131.587-6.545 3.72-7.624zm26-10c3.132-1.078 6.546.587 7.625 3.72 1.078 3.131-.587 6.545-3.72 7.624-3.131 1.078-6.545-.587-7.624-3.72-1.078-3.131.587-6.545 3.72-7.624zm26-8c3.132-1.078 6.546.587 7.625 3.72 1.078 3.131-.587 6.545-3.72 7.624-3.131 1.078-6.545-.587-7.624-3.72-1.078-3.131.587-6.545 3.72-7.624zm24-8c3.132-1.078 6.546.587 7.625 3.72 1.078 3.131-.587 6.545-3.72 7.624-3.131 1.078-6.545-.587-7.624-3.72-1.078-3.131.587-6.545 3.72-7.624z" transform="translate(-976 -1869)"/>
        </g>
    </g>
</svg>
