<?xml version="1.0" encoding="UTF-8"?>
<svg width="200px" height="200px" viewBox="0 0 200 200" version="1.1" xmlns="http://www.w3.org/2000/svg" xmlns:xlink="http://www.w3.org/1999/xlink">
    <title>metode pembayaran@1x</title>
    <defs>
        <linearGradient x1="38.3822897%" y1="32.834909%" x2="67.6597923%" y2="76.0010554%" id="linearGradient-1">
            <stop stop-color="#007BB5" offset="0%"></stop>
            <stop stop-color="#123D89" offset="100%"></stop>
        </linearGradient>
        <linearGradient x1="11.2557096%" y1="28.3796749%" x2="76.0544989%" y2="64.5123632%" id="linearGradient-2">
            <stop stop-color="#A7E3FF" offset="0%"></stop>
            <stop stop-color="#0095DA" offset="100%"></stop>
        </linearGradient>
        <linearGradient x1="-1.19054999%" y1="19.0770699%" x2="98.9831468%" y2="78.9818407%" id="linearGradient-3">
            <stop stop-color="#F9B260" offset="0%"></stop>
            <stop stop-color="#EB8208" offset="100%"></stop>
        </linearGradient>
        <linearGradient x1="49.6286388%" y1="-32.3024066%" x2="49.893416%" y2="20.3959174%" id="linearGradient-4">
            <stop stop-color="#A7E3FF" offset="0%"></stop>
            <stop stop-color="#0095DA" offset="100%"></stop>
        </linearGradient>
        <linearGradient x1="43.7929151%" y1="-11.4862778%" x2="46.3873448%" y2="14.1915741%" id="linearGradient-5">
            <stop stop-color="#F9B260" offset="0%"></stop>
            <stop stop-color="#EB8208" offset="100%"></stop>
        </linearGradient>
        <linearGradient x1="38.4845844%" y1="-0.0988042999%" x2="63.7485627%" y2="109.25073%" id="linearGradient-6">
            <stop stop-color="#F9B260" offset="0%"></stop>
            <stop stop-color="#EB8208" offset="100%"></stop>
        </linearGradient>
        <linearGradient x1="43.8234473%" y1="-11.5118311%" x2="46.4372652%" y2="14.2736295%" id="linearGradient-7">
            <stop stop-color="#F9B260" offset="0%"></stop>
            <stop stop-color="#EB8208" offset="100%"></stop>
        </linearGradient>
        <linearGradient x1="38.3790015%" y1="-0.145009164%" x2="63.6429314%" y2="109.284769%" id="linearGradient-8">
            <stop stop-color="#F9B260" offset="0%"></stop>
            <stop stop-color="#EB8208" offset="100%"></stop>
        </linearGradient>
        <linearGradient x1="58.9362923%" y1="-19.3246054%" x2="42.5313246%" y2="92.6449259%" id="linearGradient-9">
            <stop stop-color="#A7E3FF" offset="0%"></stop>
            <stop stop-color="#0095DA" offset="100%"></stop>
        </linearGradient>
        <linearGradient x1="44.206829%" y1="-45.1575175%" x2="47.6136704%" y2="14.8485318%" id="linearGradient-10">
            <stop stop-color="#A7E3FF" offset="0%"></stop>
            <stop stop-color="#0095DA" offset="100%"></stop>
        </linearGradient>
        <linearGradient x1="49.415413%" y1="4.79351549%" x2="49.6406187%" y2="33.8801222%" id="linearGradient-11">
            <stop stop-color="#007BB5" offset="0%"></stop>
            <stop stop-color="#123D89" offset="100%"></stop>
        </linearGradient>
        <linearGradient x1="44.6782631%" y1="-11.8902458%" x2="46.9373163%" y2="13.8835923%" id="linearGradient-12">
            <stop stop-color="#F9B260" offset="0%"></stop>
            <stop stop-color="#EB8208" offset="100%"></stop>
        </linearGradient>
        <linearGradient x1="39.4324575%" y1="-0.122463684%" x2="62.7010788%" y2="109.381653%" id="linearGradient-13">
            <stop stop-color="#F9B260" offset="0%"></stop>
            <stop stop-color="#EB8208" offset="100%"></stop>
        </linearGradient>
        <linearGradient x1="-11.8346112%" y1="56.8682627%" x2="13.8416954%" y2="53.9879388%" id="linearGradient-14">
            <stop stop-color="#F9B260" offset="0%"></stop>
            <stop stop-color="#EB8208" offset="100%"></stop>
        </linearGradient>
        <linearGradient x1="0.234762875%" y1="62.2602087%" x2="109.470569%" y2="35.3461582%" id="linearGradient-15">
            <stop stop-color="#F9B260" offset="0%"></stop>
            <stop stop-color="#EB8208" offset="100%"></stop>
        </linearGradient>
        <linearGradient x1="-11.8346918%" y1="56.8635157%" x2="13.8416228%" y2="53.9833878%" id="linearGradient-16">
            <stop stop-color="#F9B260" offset="0%"></stop>
            <stop stop-color="#EB8208" offset="100%"></stop>
        </linearGradient>
        <linearGradient x1="0.234681986%" y1="62.2554058%" x2="109.470815%" y2="35.3413504%" id="linearGradient-17">
            <stop stop-color="#F9B260" offset="0%"></stop>
            <stop stop-color="#EB8208" offset="100%"></stop>
        </linearGradient>
        <linearGradient x1="-11.8347786%" y1="56.8587759%" x2="13.8415493%" y2="53.978645%" id="linearGradient-18">
            <stop stop-color="#F9B260" offset="0%"></stop>
            <stop stop-color="#EB8208" offset="100%"></stop>
        </linearGradient>
        <linearGradient x1="0.234935827%" y1="62.2507963%" x2="109.470742%" y2="35.3367457%" id="linearGradient-19">
            <stop stop-color="#F9B260" offset="0%"></stop>
            <stop stop-color="#EB8208" offset="100%"></stop>
        </linearGradient>
        <linearGradient x1="-0.553754093%" y1="5.12217359%" x2="20.55808%" y2="23.9597051%" id="linearGradient-20">
            <stop stop-color="#F9B260" offset="0%"></stop>
            <stop stop-color="#EB8208" offset="100%"></stop>
        </linearGradient>
        <linearGradient x1="-0.852463355%" y1="21.390776%" x2="110.018149%" y2="84.3378392%" id="linearGradient-21">
            <stop stop-color="#F9B260" offset="0%"></stop>
            <stop stop-color="#EB8208" offset="100%"></stop>
        </linearGradient>
        <linearGradient x1="38.7251332%" y1="36.9031572%" x2="67.1507332%" y2="69.8955492%" id="linearGradient-22">
            <stop stop-color="#007BB5" offset="0%"></stop>
            <stop stop-color="#123D89" offset="100%"></stop>
        </linearGradient>
        <linearGradient x1="12.295195%" y1="30.9085284%" x2="75.3464818%" y2="62.8795103%" id="linearGradient-23">
            <stop stop-color="#A7E3FF" offset="0%"></stop>
            <stop stop-color="#0095DA" offset="100%"></stop>
        </linearGradient>
        <linearGradient x1="78.392345%" y1="-46.8019287%" x2="31.3058562%" y2="127.269871%" id="linearGradient-24">
            <stop stop-color="#A7E3FF" offset="0%"></stop>
            <stop stop-color="#0095DA" offset="100%"></stop>
        </linearGradient>
        <linearGradient x1="62.2002997%" y1="-39.4557191%" x2="37.2600738%" y2="113.726402%" id="linearGradient-25">
            <stop stop-color="#A7E3FF" offset="0%"></stop>
            <stop stop-color="#0095DA" offset="100%"></stop>
        </linearGradient>
        <linearGradient x1="198.861026%" y1="-429.005923%" x2="-8.87402457%" y2="237.634036%" id="linearGradient-26">
            <stop stop-color="#A7E3FF" offset="0%"></stop>
            <stop stop-color="#0095DA" offset="100%"></stop>
        </linearGradient>
        <linearGradient x1="241.005556%" y1="-562.24245%" x2="33.2730967%" y2="104.39965%" id="linearGradient-27">
            <stop stop-color="#A7E3FF" offset="0%"></stop>
            <stop stop-color="#0095DA" offset="100%"></stop>
        </linearGradient>
        <linearGradient x1="54.653052%" y1="16.8485402%" x2="40.2632561%" y2="113.261424%" id="linearGradient-28">
            <stop stop-color="#F9B260" offset="0%"></stop>
            <stop stop-color="#EB8208" offset="100%"></stop>
        </linearGradient>
        <linearGradient x1="47.7083791%" y1="36.7978814%" x2="62.2425056%" y2="114.243644%" id="linearGradient-29">
            <stop stop-color="#A7E3FF" offset="0%"></stop>
            <stop stop-color="#0095DA" offset="100%"></stop>
        </linearGradient>
        <linearGradient x1="36.9290203%" y1="-19.4909567%" x2="60.4717588%" y2="105.712713%" id="linearGradient-30">
            <stop stop-color="#A7E3FF" offset="0%"></stop>
            <stop stop-color="#0095DA" offset="100%"></stop>
        </linearGradient>
        <linearGradient x1="-0.0246875%" y1="50.0209964%" x2="100.013438%" y2="50.0209964%" id="linearGradient-31">
            <stop stop-color="#007BB5" offset="0%"></stop>
            <stop stop-color="#123D89" offset="100%"></stop>
        </linearGradient>
        <linearGradient x1="48.806087%" y1="25.7517732%" x2="52.2049275%" y2="86.9285546%" id="linearGradient-32">
            <stop stop-color="#947CC1" offset="0%"></stop>
            <stop stop-color="#7251A1" offset="100%"></stop>
        </linearGradient>
        <linearGradient x1="21.1894923%" y1="-44.958481%" x2="47.452539%" y2="41.4967089%" id="linearGradient-33">
            <stop stop-color="#947CC1" offset="0%"></stop>
            <stop stop-color="#7251A1" offset="100%"></stop>
        </linearGradient>
        <linearGradient x1="33.0766778%" y1="-15.1445183%" x2="50.0083887%" y2="48.8299003%" id="linearGradient-34">
            <stop stop-color="#A7E3FF" offset="0%"></stop>
            <stop stop-color="#0095DA" offset="100%"></stop>
        </linearGradient>
    </defs>
    <g id="02.-Desktop" stroke="none" stroke-width="1" fill="none" fill-rule="evenodd">
        <g id="Desktop---Gold---Landing-Page" transform="translate(-621.000000, -1429.000000)" fill-rule="nonzero">
            <g id="usp-items" transform="translate(120.000000, 1397.000000)">
                <g id="usp-2" transform="translate(445.000000, 32.000000)">
                    <g id="metode-pembayaran" transform="translate(56.000000, 0.000000)">
                        <circle id="Oval" fill="#DAF3FF" cx="100" cy="100" r="100"></circle>
                        <g id="Group" transform="translate(3.278689, 9.836066)" fill="#A8DAE9" opacity="0.8">
                            <path d="M99.6596804,173.504652 L104.189666,177.038104 C104.43453,177.159947 104.312098,177.525476 104.067234,177.647319 L97.7007678,179.59681 C97.4559037,179.718653 97.2110396,179.474967 97.2110396,179.109437 L99.0475202,173.626495 C99.1699523,173.504652 99.4148164,173.382809 99.6596804,173.504652 Z" id="Path"></path>
                            <path d="M9.18240299,83.7062472 L12.8553642,78.7106779 C13.4675244,77.8577758 14.5694127,77.7359327 15.426437,78.3451484 L15.426437,78.3451484 C16.2834613,78.9543642 16.4058933,80.0509526 15.7937331,80.9038547 L12.1207719,85.899424 C11.5086117,86.7523261 10.4067234,86.8741693 9.54969911,86.2649535 L9.54969911,86.2649535 C8.69267483,85.6557377 8.57024279,84.5591493 9.18240299,83.7062472 Z" id="Path"></path>
                            <path d="M138.103341,6.4576872 L141.776302,1.46211786 C142.388462,0.609215773 143.490351,0.487372619 144.347375,1.09658839 L144.347375,1.09658839 C145.204399,1.70580416 145.326831,2.80239256 144.714671,3.65529464 L141.04171,8.65086398 C140.42955,9.50376606 139.327661,9.62560922 138.470637,9.01639344 L138.470637,9.01639344 C137.736045,8.40717767 137.613613,7.31058928 138.103341,6.4576872 Z" id="Path"></path>
                            <g transform="translate(33.056651, 7.310589)" id="Path">
                                <path d="M0.857024279,4.0208241 C0.857024279,5.60478511 2.20377672,6.82321666 3.6729612,6.82321666 C5.26457771,6.82321666 6.48889811,5.48294196 6.48889811,4.0208241 C6.48889811,2.55870625 5.14214567,1.21843155 3.6729612,1.21843155 C2.20377672,1.09658839 0.857024279,2.43686309 0.857024279,4.0208241 Z"></path>
                            </g>
                            <g transform="translate(186.096701, 99.911387)" id="Path">
                                <path d="M0.734592239,3.04607887 C0.734592239,4.63003988 2.08134468,5.84847142 3.55052916,5.84847142 C5.14214567,5.84847142 6.36646607,4.50819672 6.36646607,3.04607887 C6.36646607,1.58396101 5.01971363,0.243686309 3.55052916,0.243686309 C2.08134468,0.121843155 0.734592239,1.46211786 0.734592239,3.04607887 Z"></path>
                            </g>
                            <g transform="translate(0.000000, 119.406292)" id="Path">
                                <path d="M1.10188836,3.89898095 C1.10188836,5.48294196 2.4486408,6.7013735 3.91782527,6.7013735 C5.50944179,6.7013735 6.73376219,5.3610988 6.73376219,3.89898095 C6.73376219,2.43686309 5.38700975,1.09658839 3.91782527,1.09658839 C2.32620876,0.974745237 1.10188836,2.31501994 1.10188836,3.89898095 Z"></path>
                            </g>
                        </g>
                        <g id="Group" transform="translate(3.278689, 6.557377)">
                            <g transform="translate(15.916165, 120.140515)" id="Path">
                                <path d="M87.9062046,42.2312114 L33.4239469,60.1916117 C29.1388255,61.6478603 23.3845196,59.5848414 20.5685827,55.7015116 L1.95891264,29.8530977 C-0.857024279,25.9697679 0.36729612,21.722376 4.65241751,20.2661273 L59.1346752,2.30572706 C63.4197966,0.84947839 69.1741025,2.91249734 71.9900394,6.79582712 L90.5997095,32.644241 C93.5380784,36.5275708 92.191326,40.7749627 87.9062046,42.2312114 Z" fill="url(#linearGradient-1)"></path>
                                <path d="M88.3959328,40.6536087 L33.913675,58.6140089 C29.6285536,60.0702576 23.8742478,58.0072387 21.0583109,54.1239089 L2.4486408,28.275495 C-0.36729612,24.3921652 0.857024279,20.1447733 5.14214567,18.6885246 L59.6244034,0.728124335 C63.9095248,-0.728124335 69.6638307,1.33489461 72.4797676,5.2182244 L91.0894376,31.0666383 C93.9053746,34.9499681 92.6810542,39.19736 88.3959328,40.6536087 Z" fill="url(#linearGradient-2)"></path>
                                <path d="M36.1174518,37.8624654 C39.5455489,34.70726 41.1371654,29.7317437 39.912845,25.2416436 C39.5455489,23.906749 38.9333887,22.5718544 38.9333887,21.2369598 C38.9333887,18.9312327 40.5250052,16.8682138 42.4839178,15.6546732 C44.4428305,14.4411326 46.7690392,13.8343624 48.9728159,13.2275921 C54.8495538,11.5286353 60.3589956,8.85884607 65.5011413,5.58228657 C66.8478938,4.61145412 68.3170782,3.64062167 69.4189666,2.42708112 C66.4805976,0.485416223 62.6852044,-0.121354056 59.6244034,0.84947839 L5.14214567,18.8098786 C0.857024279,20.2661273 -0.36729612,24.5135193 2.4486408,28.3968491 L15.1815729,45.9931871 C17.6302137,44.6582925 20.4461507,43.8088141 23.1396555,43.2020439 C27.547209,41.9885033 32.5669226,41.0176709 36.1174518,37.8624654 Z" fill="#FFFFFF" opacity="0.15"></path>
                                <path d="M31.7098983,37.3770492 L25.2210002,39.5614222 C23.5069516,40.1681925 21.1807429,39.3187141 20.0788545,37.7411113 L15.9161652,31.9161167 C14.8142768,30.3385139 15.304005,28.6395572 17.0180535,28.0327869 L23.5069516,25.8484139 C25.2210002,25.2416436 27.547209,26.091122 28.6490973,27.6687247 L32.8117867,33.4937194 C33.913675,35.0713221 33.4239469,36.7702789 31.7098983,37.3770492 Z" fill="url(#linearGradient-3)"></path>
                                <path d="M75.0508404,31.5520545 L30.4855779,46.2358953 C29.6285536,46.4786034 28.4042332,46.1145412 27.792073,45.2650628 L27.792073,45.2650628 C27.1799128,44.4155844 27.4247769,43.566106 28.4042332,43.2020439 L72.9694957,28.5182031 C73.82652,28.275495 75.0508404,28.6395572 75.6630006,29.4890356 L75.6630006,29.4890356 C76.2751608,30.3385139 75.9078647,31.3093464 75.0508404,31.5520545 Z" fill="#FFFFFF"></path>
                                <path d="M53.5028014,44.2942304 L33.668811,50.8473494 C32.8117867,51.0900575 31.5874663,50.7259953 30.9753061,49.8765169 L30.9753061,49.8765169 C30.3631459,49.0270385 30.60801,48.1775601 31.5874663,47.813498 L51.4214567,41.260379 C52.278481,41.0176709 53.5028014,41.381733 54.1149616,42.2312114 L54.1149616,42.2312114 C54.6046898,43.0806898 54.3598257,43.9301682 53.5028014,44.2942304 Z" fill="#FFFFFF"></path>
                                <path d="M63.4197966,10.800511 L52.8906412,14.1984245 C51.6663208,14.5624867 49.9522723,14.0770705 49.21768,12.8635299 L49.21768,12.8635299 C48.3606557,11.7713434 48.7279519,10.4364488 49.9522723,10.0723866 L60.4814277,6.67447307 C61.7057481,6.3104109 63.4197966,6.79582712 64.1543889,8.00936768 L64.1543889,8.00936768 C65.0114132,9.10155418 64.644117,10.3150947 63.4197966,10.800511 Z" fill="#FFFFFF"></path>
                            </g>
                            <g transform="translate(0.000000, 21.843730)">
                                <g>
                                    <path d="M0.979456319,42.4739195 C0.36729612,43.6874601 0.12243204,44.5369385 0.12243204,45.3864169 L0.12243204,45.3864169 C0.36729612,46.5999574 0.979456319,47.3280818 0.979456319,47.4494358 L1.34675244,88.7098148 L50.0747043,74.2686821 C51.6663208,73.7832659 52.6457771,72.3270172 52.6457771,70.7494145 L52.278481,32.0374707 C52.278481,29.7317437 50.0747043,28.0327869 47.7484955,28.6395572 L0.979456319,42.4739195 Z" id="Path" fill="url(#linearGradient-4)"></path>
                                    <g transform="translate(24.486408, 14.562487)">
                                        <path d="M14.2021166,1.33489461 L14.2021166,0.606770279 L11.2637477,0.728124335 C5.50944179,0.84947839 0.612160199,8.73749202 0.36729612,18.3244624 C0.12243204,27.9114328 4.65241751,35.5567383 10.4067234,35.4353843 L13.3450923,35.3140302 L13.2226603,34.70726 C17.6302137,32.644241 21.0583109,25.8484139 21.3031749,17.8390462 C21.548039,9.95103257 18.487238,3.39791356 14.2021166,1.33489461 Z" id="Path" fill="url(#linearGradient-5)"></path>
                                        <path d="M24.2415439,17.8390462 C23.9966798,27.4260166 19.0993982,35.3140302 13.3450923,35.4353843 C7.59078647,35.5567383 3.060801,27.9114328 3.30566508,18.3244624 C3.55052916,8.73749202 8.44781075,0.84947839 14.2021166,0.728124335 C19.9564225,0.606770279 24.486408,8.25207579 24.2415439,17.8390462 Z" id="Path" fill="url(#linearGradient-6)"></path>
                                        <ellipse id="Oval" fill="#FBC65B" transform="translate(13.846809, 17.981215) rotate(-87.258648) translate(-13.846809, -17.981215) " cx="13.8468094" cy="17.9812154" rx="12.9857252" ry="7.22366798"></ellipse>
                                    </g>
                                    <g transform="translate(1.224320, 0.000000)">
                                        <path d="M12.1207719,1.69895678 L12.1207719,1.0921865 L9.67213115,1.0921865 C4.77484955,1.21354056 0.734592239,7.76665957 0.489728159,15.8973813 C0.24486408,24.028103 4.04025731,30.459868 8.93753891,30.3385139 L11.3861797,30.3385139 L11.2637477,29.8530977 C15.0591409,28.0327869 17.8750778,22.3291463 18.1199419,15.6546732 C18.364806,8.98020013 15.7937331,3.39791356 12.1207719,1.69895678 Z" id="Path" fill="url(#linearGradient-7)"></path>
                                        <path d="M20.6910147,15.6546732 C20.4461507,23.7853949 16.4058933,30.3385139 11.5086117,30.459868 C6.61133015,30.5812221 2.81593692,24.028103 3.060801,16.0187354 C3.30566508,8.00936768 7.34592239,1.21354056 12.243204,1.21354056 C17.1404856,1.21354056 20.8134468,7.52395146 20.6910147,15.6546732 Z" id="Path" fill="url(#linearGradient-8)"></path>
                                        <ellipse id="Oval" fill="#FBC65B" transform="translate(11.823133, 15.744066) rotate(-87.258648) translate(-11.823133, -15.744066) " cx="11.8231333" cy="15.7440656" rx="10.9225726" ry="6.1217525"></ellipse>
                                    </g>
                                    <path d="M9.54969911,48.7843304 C9.54969911,48.7843304 3.42809712,49.5124548 1.10188836,47.4494358 C1.10188836,47.4494358 0.24486408,46.5999574 0.24486408,45.1437088 C0.24486408,44.2942304 1.10188836,42.5952736 1.10188836,42.5952736 C0.489728159,43.8088141 0.24486408,44.6582925 0.24486408,45.5077709 L0.24486408,45.5077709 L0.734592239,91.1368959 C0.12243204,96.3551203 10.1618593,95.1415797 10.1618593,95.1415797 L58.522515,80.8218011 C60.2365636,80.3363849 61.460884,78.6374281 61.460884,76.8171173 L61.0935879,39.076006 C61.0935879,36.4062167 58.522515,34.4645518 56.0738742,35.1926762 L9.54969911,48.7843304 Z" id="Path" fill="url(#linearGradient-9)"></path>
                                    <path d="M60.9711558,46.7213115 L60.8487238,38.9546519 C60.8487238,36.2848627 58.277651,34.3431978 55.8290102,35.0713221 L14.2021166,47.3280818 C16.5283254,49.0270385 19.5891264,49.997871 22.5274953,49.997871 C27.547209,50.119225 32.4444906,48.2989142 37.4642042,47.3280818 C42.3614858,46.3572493 47.3811994,46.1145412 52.4009131,46.3572493 C55.21685,46.5999574 58.1552189,46.9640196 60.9711558,46.7213115 Z" id="Path" fill="#FFFFFF" opacity="0.15"></path>
                                    <path d="M31.5874663,88.5884607 C32.1996265,86.5254418 32.5669226,84.0983607 32.6893546,81.6712795 C33.0566508,71.9629551 28.7715294,64.1962955 23.0172235,64.3176496 L23.0172235,64.3176496 L20.0788545,64.3176496 C14.3245487,64.4390036 9.42726707,72.3270172 8.93753891,82.0353417 C8.69267483,86.8895039 9.79456319,91.379604 11.5086117,94.5348095 L31.5874663,88.5884607 Z" id="Path" fill="url(#linearGradient-10)"></path>
                                </g>
                                <path d="M61.2160199,50.3619331 L43.3409421,55.4588035 C40.6474372,56.1869278 38.8109566,58.735363 38.8109566,61.5265063 L38.8109566,61.5265063 C38.8109566,65.6525442 42.7287819,68.5650415 46.6466072,67.351501 L61.7057481,62.6186928 C61.9506122,62.4973387 62.0730442,62.2546306 62.0730442,62.0119225 L61.9506122,50.9687034 C61.9506122,50.4832872 61.583316,50.2405791 61.2160199,50.3619331 Z" id="Path" fill="url(#linearGradient-11)"></path>
                                <ellipse id="Oval" fill="#FFFFFF" transform="translate(44.523244, 61.433889) rotate(-82.443598) translate(-44.523244, -61.433889) " cx="44.5232438" cy="61.4338889" rx="4.36934913" ry="3.67234665"></ellipse>
                                <g transform="translate(12.243204, 61.890568)">
                                    <path d="M15.0591409,1.45624867 L15.0591409,0.728124335 L12.1207719,0.728124335 C6.36646607,0.84947839 1.46918448,8.73749202 0.979456319,18.4458165 C0.612160199,28.1541409 4.89728159,35.9208005 10.6515875,35.7994465 L13.5899564,35.7994465 L13.4675244,35.1926762 C17.8750778,33.1296572 21.425607,26.212476 21.7929031,18.2031084 C22.1601992,10.1937407 19.2218303,3.51926762 15.0591409,1.45624867 Z" id="Path" fill="url(#linearGradient-12)"></path>
                                    <path d="M24.731272,18.0817543 C24.3639759,27.7900788 19.3442623,35.6780924 13.5899564,35.7994465 C7.83565055,35.9208005 3.55052916,28.0327869 3.91782527,18.4458165 C4.28512139,8.85884607 9.30483503,0.84947839 15.0591409,0.728124335 C20.8134468,0.606770279 25.0985682,8.37342985 24.731272,18.0817543 Z" id="Path" fill="url(#linearGradient-13)"></path>
                                    <ellipse id="Oval" fill="#FBC65B" transform="translate(14.340073, 18.257931) rotate(-86.108860) translate(-14.340073, -18.257931) " cx="14.3400731" cy="18.2579307" rx="13.1068434" ry="7.22323961"></ellipse>
                                </g>
                            </g>
                            <g transform="translate(63.664661, 0.000000)">
                                <g transform="translate(0.000000, 13.348946)">
                                    <path d="M1.10188836,11.6499894 L0.36729612,11.6499894 L0.489728159,14.8051948 C0.612160199,21.1156057 9.18240299,26.3338301 19.4666943,26.4551842 C29.8734177,26.5765382 38.0763644,21.4796679 37.9539324,15.169257 L37.8315003,12.0140515 L37.0969081,12.1354056 C34.7706993,7.28124335 27.4247769,3.64062167 18.8545341,3.64062167 C10.2842913,3.51926762 3.18323304,6.91718118 1.10188836,11.6499894 Z" id="Path" fill="url(#linearGradient-14)"></path>
                                    <path d="M18.7321021,0.364062167 C29.1388255,0.485416223 37.5866362,5.70364062 37.7090683,12.0140515 C37.8315003,18.3244624 29.5061216,23.4213328 19.2218303,23.2999787 C8.93753891,23.1786247 0.36729612,17.9604003 0.24486408,11.6499894 C0.12243204,5.33957845 8.44781075,0.242708112 18.7321021,0.364062167 Z" id="Path" fill="url(#linearGradient-15)"></path>
                                    <ellipse id="Oval" fill="#FBC65B" transform="translate(18.979131, 11.863862) rotate(-88.278700) translate(-18.979131, -11.863862) " cx="18.9791306" cy="11.8638624" rx="7.88769291" ry="13.9564608"></ellipse>
                                </g>
                                <g transform="translate(0.000000, 8.494784)">
                                    <path d="M1.10188836,11.2859272 L0.36729612,11.2859272 L0.489728159,14.4411326 C0.612160199,20.7515435 9.18240299,25.9697679 19.4666943,26.091122 C29.8734177,26.212476 38.0763644,21.1156057 37.9539324,14.8051948 L37.8315003,11.6499894 L37.0969081,11.7713434 C34.7706993,6.91718118 27.4247769,3.27655951 18.8545341,3.27655951 C10.2842913,3.15520545 3.18323304,6.55311901 1.10188836,11.2859272 Z" id="Path" fill="url(#linearGradient-16)"></path>
                                    <path d="M18.7321021,-1.30104261e-18 C29.1388255,0.121354056 37.5866362,5.33957845 37.7090683,11.6499894 C37.8315003,17.9604003 29.5061216,23.0572706 19.2218303,22.9359165 C8.81510687,22.8145625 0.36729612,17.5963381 0.24486408,11.2859272 C0.12243204,4.97551629 8.44781075,-0.121354056 18.7321021,-1.30104261e-18 Z" id="Path" fill="url(#linearGradient-17)"></path>
                                    <ellipse id="Oval" fill="#FBC65B" transform="translate(18.982253, 11.497062) rotate(-88.278700) translate(-18.982253, -11.497062) " cx="18.9822526" cy="11.4970621" rx="7.88769291" ry="13.9564608"></ellipse>
                                </g>
                                <g transform="translate(0.000000, 2.427081)">
                                    <path d="M1.10188836,12.1354056 L0.36729612,12.1354056 L0.489728159,15.290611 C0.612160199,21.6010219 9.18240299,26.8192463 19.4666943,26.9406004 C29.7509857,27.0619544 38.0763644,21.9650841 37.9539324,15.6546732 L37.8315003,12.4994677 L37.0969081,12.6208218 C34.7706993,7.76665957 27.4247769,4.1260379 18.8545341,4.1260379 C10.2842913,4.00468384 3.18323304,7.4025974 1.10188836,12.1354056 Z" id="Path" fill="url(#linearGradient-18)"></path>
                                    <path d="M18.7321021,0.84947839 C29.1388255,0.970832446 37.5866362,6.18905684 37.7090683,12.4994677 C37.8315003,18.8098786 29.5061216,23.906749 19.2218303,23.7853949 C8.81510687,23.6640409 0.36729612,18.4458165 0.24486408,12.1354056 C0.12243204,5.82499468 8.44781075,0.728124335 18.7321021,0.84947839 Z" id="Path" fill="url(#linearGradient-19)"></path>
                                    <ellipse id="Oval" fill="#FBC65B" transform="translate(18.985375, 12.343802) rotate(-88.278700) translate(-18.985375, -12.343802) " cx="18.9853746" cy="12.3438023" rx="7.88769291" ry="13.9564608"></ellipse>
                                </g>
                                <g transform="translate(28.159369, 0.000000)">
                                    <path d="M5.75430587,3.15520545 L5.26457771,2.54843517 L2.81593692,4.73280818 C-1.95891264,8.85884607 -0.489728159,18.6885246 6.12160199,26.5765382 C12.7329321,34.4645518 21.9153351,37.4984032 26.6901847,33.2510113 L29.1388255,31.0666383 L28.6490973,30.5812221 C30.852874,25.7270598 28.8939614,17.8390462 23.5069516,11.2859272 C17.9975099,4.85416223 10.7740195,1.69895678 5.75430587,3.15520545 Z" id="Path" fill="url(#linearGradient-20)"></path>
                                    <path d="M25.9555924,9.22290824 C32.5669226,17.1109219 34.0361071,26.9406004 29.2612575,31.0666383 C24.486408,35.1926762 15.304005,32.2801788 8.69267483,24.3921652 C2.08134468,16.5041516 0.612160199,6.67447307 5.38700975,2.54843517 C10.1618593,-1.57760273 19.3442623,1.33489461 25.9555924,9.22290824 Z" id="Path" fill="url(#linearGradient-21)"></path>
                                    <ellipse id="Oval" fill="#FBC65B" transform="translate(17.272455, 16.860896) rotate(-38.548855) translate(-17.272455, -16.860896) " cx="17.2724551" cy="16.8608961" rx="7.93133448" ry="13.8825374"></ellipse>
                                </g>
                                <path d="M11.9983399,31.1879923 C15.9161652,28.3968491 16.8956215,22.8145625 16.0385972,18.0817543 C15.426437,15.290611 14.4469807,12.6208218 14.6918448,9.82967852 C14.9367089,7.28124335 16.4058933,5.09687034 17.9975099,3.15520545 C7.95808259,3.27655951 0.12243204,8.25207579 0.24486408,14.3197786 L0.24486408,14.3197786 L0.36729612,17.474984 C0.36729612,17.7176921 0.36729612,17.8390462 0.36729612,18.0817543 C0.24486408,18.5671705 0.24486408,19.0525868 0.24486408,19.538003 L0.24486408,19.538003 L0.36729612,22.6932084 C0.36729612,22.9359165 0.36729612,23.0572706 0.36729612,23.2999787 C0.24486408,23.7853949 0.24486408,24.2708112 0.24486408,24.7562274 L0.24486408,24.7562274 L0.36729612,27.9114328 C0.36729612,30.5812221 1.95891264,33.1296572 4.65241751,35.0713221 C4.65241751,35.0713221 4.77484955,34.9499681 4.77484955,34.9499681 C6.85619423,33.3723653 9.79456319,32.8869491 11.9983399,31.1879923 Z" id="Path" fill="#FFEF5B" opacity="0.15"></path>
                            </g>
                            <g transform="translate(66.113302, 27.911433)" id="Path">
                                <g>
                                    <path d="M123.289064,48.0562061 L37.5866362,76.5744092 C33.4239469,77.9093038 27.3023449,75.6035768 24.1191118,71.3561848 L2.57107284,42.9593357 C-0.612160199,38.7119438 0.12243204,34.1004897 4.40755343,32.7655951 L90.1099813,4.24739195 C94.2726707,2.91249734 100.394273,5.2182244 103.577506,9.46561635 L125.125545,37.8624654 C128.308778,42.1098574 127.451753,46.7213115 123.289064,48.0562061 Z" fill="url(#linearGradient-22)"></path>
                                    <path d="M123.411496,44.9010006 L37.7090683,73.4192037 C33.5463789,74.7540984 27.4247769,72.4483713 24.2415439,68.2009793 L2.81593692,39.8041303 C-0.36729612,35.5567383 0.36729612,30.9452842 4.65241751,29.6103896 L90.3548454,1.0921865 C94.5175348,-0.242708112 100.639137,2.06301895 103.82237,6.3104109 L125.370409,34.70726 C128.43121,38.9546519 127.574186,43.566106 123.411496,44.9010006 Z" fill="url(#linearGradient-23)"></path>
                                    <path d="M117.534758,30.8239302 L113.984229,30.3385139 L101.373729,13.4703002 L102.353185,10.6791569 L100.884001,8.73749202 C99.1699523,6.43176496 95.9867192,4.85416223 93.4156464,4.85416223 C92.8034862,4.85416223 92.313758,4.97551629 91.8240299,5.09687034 L6.12160199,33.7364275 C5.63187383,33.8577816 4.89728159,34.2218437 4.77484955,34.9499681 C4.65241751,35.6780924 5.01971363,36.7702789 5.75430587,37.7411113 L27.3023449,66.1379604 C29.3836896,68.9291037 33.668811,70.6280605 36.3623158,69.7785821 L122.064744,41.260379 C122.554472,41.1390249 123.289064,40.7749627 123.411496,40.0468384 C123.533928,39.3187141 123.166632,38.2265276 122.43204,37.2556951 L117.534758,30.8239302 Z" fill="#FFFFFF"></path>
                                </g>
                                <g transform="translate(56.318738, 16.989568)">
                                    <path d="M20.0788545,23.2999787 L11.2637477,11.1645731 L19.8339905,5.46093251 L31.3426022,21.2369598 C32.1996265,22.4505003 31.3426022,23.7853949 29.7509857,23.906749 L22.4050633,24.2708112 C21.548039,24.3921652 20.5685827,23.906749 20.0788545,23.2999787 Z" fill="url(#linearGradient-24)"></path>
                                    <path d="M14.2021166,25.6057058 L5.75430587,14.0770705 C5.26457771,13.4703002 5.50944179,12.7421759 6.12160199,12.3781137 L18.6096701,4.85416223 L18.6096701,2.42708112 C18.6096701,1.69895678 19.3442623,1.0921865 20.2012866,1.21354056 C21.1807429,1.33489461 21.9153351,1.94166489 21.9153351,2.66978923 L21.9153351,5.70364062 C21.9153351,6.06770279 21.6704711,6.43176496 21.3031749,6.67447307 L9.30483503,13.8343624 L17.0180535,24.3921652 C17.5077817,24.9989355 17.2629176,25.8484139 16.5283254,26.212476 C15.7937331,26.5765382 14.6918448,26.212476 14.2021166,25.6057058 Z" fill="url(#linearGradient-25)"></path>
                                    <path d="M3.91782527,18.4458165 C2.81593692,18.9312327 1.46918448,18.5671705 0.734592239,17.5963381 C0.12243204,16.6255056 0.36729612,15.5333191 1.46918448,15.169257 C2.57107284,14.6838407 3.91782527,15.0479029 4.65241751,16.0187354 C5.38700975,16.9895678 5.01971363,18.0817543 3.91782527,18.4458165 Z" fill="url(#linearGradient-26)"></path>
                                    <path d="M11.1413156,28.3968491 C10.0394273,28.8822653 8.69267483,28.5182031 7.95808259,27.5473707 C7.34592239,26.5765382 7.59078647,25.4843517 8.69267483,25.1202895 C9.79456319,24.6348733 11.1413156,24.9989355 11.8759079,25.9697679 C12.6105001,26.8192463 12.243204,28.0327869 11.1413156,28.3968491 Z" fill="url(#linearGradient-27)"></path>
                                </g>
                                <path d="M17.7526458,40.7749627 L32.3220585,59.7061954 C33.4239469,61.0410901 35.1379954,61.6478603 36.852044,61.0410901 L42.2390537,58.9780711 C44.6876945,58.1285927 45.5447188,55.0947413 43.9531023,53.0317224 L29.5061216,34.4645518 C28.5266653,33.1296572 26.8126167,32.644241 25.2210002,33.1296572 L19.5891264,34.828614 C17.1404856,35.5567383 16.1610293,38.7119438 17.7526458,40.7749627 Z" fill="url(#linearGradient-28)"></path>
                                <path d="M24.2415439,41.381733 L34.4034032,54.9733873 C34.7706993,55.3374494 35.2604275,55.5801575 35.7501556,55.3374494 L37.3417722,54.7306792 C38.0763644,54.487971 38.3212285,53.5171386 37.8315003,52.9103683 L27.792073,39.4400681 C27.547209,39.076006 26.9350488,38.8332978 26.4453206,39.076006 L24.731272,39.5614222 C23.9966798,39.8041303 23.7518157,40.7749627 24.2415439,41.381733 Z" fill="#FFFFFF"></path>
                            </g>
                            <g transform="translate(116.310438, 71.598893)">
                                <polygon id="Path" fill="url(#linearGradient-29)" points="2.32620876 57.1577603 1.2243204 90.4087716 34.1585391 114.558229 61.583316 100.481158 64.0319568 21.84373 31.0977381 0 12.7329321 9.58697041"></polygon>
                                <polygon id="Path" fill="url(#linearGradient-30)" points="35.2604275 81.4285714 34.5258352 114.436875 61.583316 100.481158 64.0319568 21.84373 44.8101266 32.1588248"></polygon>
                                <polygon id="Path" fill="url(#linearGradient-31)" points="9.79456319 10.800511 41.6268935 31.0666383 36.2398838 79.0014903 2.4486408 54.8520332"></polygon>
                                <polygon id="Path" fill="url(#linearGradient-32)" points="15.7937331 41.0176709 3.91782527 53.1530764 39.1782527 76.6957633 46.156879 60.919736"></polygon>
                                <path d="M34.2809712,59.0994252 L30.4855779,64.6817117 C29.9958498,65.4098361 30.2407138,66.5020226 30.9753061,66.9874388 L37.2193401,71.2348307 C37.9539324,71.720247 38.9333887,71.5988929 39.5455489,70.8707686 L43.4633741,65.4098361 C43.9531023,64.6817117 43.8306703,63.5895252 42.973646,62.9827549 L36.6071799,58.735363 C35.8725877,58.1285927 34.7706993,58.3713008 34.2809712,59.0994252 Z" id="Path" fill="#FFFFFF"></path>
                                <polygon id="Path" fill="url(#linearGradient-33)" points="15.7937331 41.0176709 16.5283254 12.984884 46.6466072 32.644241 46.156879 60.919736"></polygon>
                                <path d="M18.364806,21.9650841 L17.7526458,39.6827762 C17.7526458,39.9254844 17.8750778,40.1681925 18.1199419,40.2895465 L42.973646,56.672344 L43.8306703,36.2848627 L19.4666943,21.4796679 C18.9769662,21.1156057 18.364806,21.3583138 18.364806,21.9650841 Z" id="Path" fill="#FFFFFF"></path>
                                <path d="M44.8101266,32.1588248 L8.93753891,8.37342985 L0.12243204,57.0364062 L35.3828595,81.4285714 L46.8914713,75.8462849 L48.2382237,30.5812221 L44.8101266,32.1588248 Z M41.6268935,59.5848414 L35.1379954,76.210347 L2.4486408,54.8520332 L10.2842913,12.6208218 L42.4839178,32.8869491 L41.6268935,59.5848414 Z" id="Shape" fill="url(#linearGradient-34)"></path>
                                <polygon id="Path" fill="#FFFFFF" points="48.1157917 30.5812221 44.8101266 32.1588248 8.93753891 8.25207579 12.9777962 7.15988929"></polygon>
                                <g transform="translate(9.794563, 44.901001)" fill="#FFFFFF" id="Path">
                                    <path d="M14.2021166,4.85416223 L12.4880681,3.76197573 C12.243204,3.51926762 11.7534758,3.64062167 11.5086117,3.88332978 L10.6515875,4.85416223 C10.2842913,5.2182244 10.4067234,5.70364062 10.7740195,5.94634873 L12.4880681,7.03853524 C12.7329321,7.28124335 13.2226603,7.15988929 13.4675244,6.91718118 L14.3245487,5.94634873 C14.5694127,5.70364062 14.5694127,5.09687034 14.2021166,4.85416223 Z"></path>
                                    <path d="M11.6310438,7.64530551 L9.91699523,6.55311901 C9.67213115,6.3104109 9.18240299,6.43176496 8.93753891,6.67447307 L7.83565055,7.88801363 C7.46835443,8.25207579 7.59078647,8.73749202 7.95808259,8.98020013 L9.79456319,10.0723866 C10.0394273,10.3150947 10.5291554,10.1937407 10.7740195,9.95103257 L11.8759079,8.73749202 C12.1207719,8.37342985 11.9983399,7.88801363 11.6310438,7.64530551 Z"></path>
                                    <path d="M7.83565055,13.2275921 L9.05997095,11.8926975 C9.30483503,11.5286353 9.30483503,11.0432191 8.93753891,10.800511 L7.10105831,9.58697041 C6.85619423,9.3442623 6.36646607,9.46561635 6.12160199,9.70832446 L4.89728159,11.0432191 C4.65241751,11.4072812 4.65241751,11.8926975 5.01971363,12.1354056 L6.85619423,13.3489461 C7.22349035,13.5916542 7.59078647,13.4703002 7.83565055,13.2275921 Z"></path>
                                    <path d="M4.65241751,3.88332978 L3.55052916,5.09687034 C3.18323304,5.46093251 3.30566508,5.94634873 3.6729612,6.18905684 L5.63187383,7.4025974 C5.87673791,7.64530551 6.36646607,7.52395146 6.61133015,7.28124335 L7.71321851,6.06770279 C7.95808259,5.70364062 7.95808259,5.2182244 7.59078647,4.97551629 L5.75430587,3.76197573 C5.38700975,3.64062167 4.89728159,3.64062167 4.65241751,3.88332978 Z"></path>
                                    <path d="M9.30483503,4.24739195 L10.1618593,3.27655951 C10.4067234,2.91249734 10.4067234,2.42708112 10.0394273,2.184373 L8.32537871,0.970832446 C8.08051463,0.728124335 7.59078647,0.84947839 7.34592239,1.0921865 L6.36646607,2.06301895 C5.99916995,2.42708112 6.12160199,2.91249734 6.48889811,3.15520545 L8.32537871,4.36874601 C8.69267483,4.61145412 9.05997095,4.49010006 9.30483503,4.24739195 Z"></path>
                                    <path d="M10.4067234,12.3781137 L9.18240299,13.7130083 C8.93753891,14.0770705 8.93753891,14.5624867 9.30483503,14.8051948 L11.2637477,16.0187354 C11.5086117,16.2614435 11.9983399,16.1400894 12.243204,15.8973813 L13.4675244,14.4411326 C13.7123885,14.0770705 13.7123885,13.5916542 13.3450923,13.3489461 L11.5086117,12.1354056 C11.0188836,12.1354056 10.5291554,12.1354056 10.4067234,12.3781137 Z"></path>
                                    <path d="M4.77484955,8.00936768 L2.81593692,6.79582712 C2.57107284,6.55311901 2.08134468,6.67447307 1.8364806,6.91718118 L0.612160199,8.25207579 C0.24486408,8.61613796 0.36729612,9.10155418 0.734592239,9.3442623 L2.69350488,10.6791569 C2.93836896,10.921865 3.42809712,10.800511 3.6729612,10.5578029 L4.89728159,9.22290824 C5.14214567,8.85884607 5.14214567,8.25207579 4.77484955,8.00936768 Z"></path>
                                    <path d="M15.7937331,10.3150947 L14.0796846,9.22290824 C13.8348205,8.98020013 13.3450923,9.10155418 13.1002283,9.3442623 L11.9983399,10.5578029 C11.6310438,10.921865 11.7534758,11.4072812 12.1207719,11.6499894 L13.9572525,12.7421759 C14.2021166,12.984884 14.6918448,12.8635299 14.9367089,12.6208218 L16.0385972,11.4072812 C16.2834613,11.0432191 16.1610293,10.5578029 15.7937331,10.3150947 Z"></path>
                                    <path d="M15.6713011,6.67447307 L14.8142768,7.52395146 C14.4469807,7.88801363 14.5694127,8.37342985 14.9367089,8.61613796 L16.6507574,9.70832446 C16.8956215,9.95103257 17.3853497,9.82967852 17.6302137,9.58697041 L18.364806,8.73749202 C18.6096701,8.37342985 18.6096701,7.88801363 18.2423739,7.64530551 L16.6507574,6.55311901 C16.2834613,6.3104109 15.9161652,6.43176496 15.6713011,6.67447307 Z"></path>
                                </g>
                            </g>
                        </g>
                    </g>
                </g>
            </g>
        </g>
    </g>
</svg>