<?xml version="1.0" encoding="UTF-8"?>
<svg width="156px" height="144px" viewBox="0 0 156 144" version="1.1" xmlns="http://www.w3.org/2000/svg" xmlns:xlink="http://www.w3.org/1999/xlink">
    <title>floating-illustration@1x</title>
    <defs>
        <filter id="filter-1">
            <feColorMatrix in="SourceGraphic" type="matrix" values="0 0 0 0 1.000000 0 0 0 0 1.000000 0 0 0 0 1.000000 0 0 0 1.000000 0"></feColorMatrix>
        </filter>
    </defs>
    <g id="02.-Desktop" stroke="none" stroke-width="1" fill="none" fill-rule="evenodd">
        <g id="Desktop---Gold---Landing-Page" transform="translate(-346.000000, -1937.000000)">
            <g id="Group-4" transform="translate(346.000000, 1937.000000)">
                <ellipse id="Oval" fill="#41C3FF" fill-rule="nonzero" cx="82" cy="73" rx="74" ry="71"></ellipse>
                <ellipse id="Oval" fill="#A7E3FF" fill-rule="nonzero" cx="73" cy="71" rx="73" ry="71"></ellipse>
                <path d="M0,70.9749269 C0,76.4429016 0.675486119,81.759321 1.91417916,86.8728105 C11.4742092,90.1710627 21.8582237,92 32.7275741,92 C79.8223576,92 118,58.0370791 118,16.1419131 C118,14.9919774 117.959254,13.850604 117.902208,12.7135119 C105.750702,4.70762988 90.9887046,0 75.0568302,0 C33.6040762,0 0,31.7760736 0,70.9749269 Z" id="Path" fill="#DAF3FF" fill-rule="nonzero" opacity="0.2"></path>
                <g filter="url(#filter-1)" id="Group-41">
                    <g transform="translate(46.000000, 30.000000)">
                        <path d="M3.81671001,11.6056286 C0.218021328,16.0171928 0.0224003022,22.6003114 3.9458937,26.7114329 C5.65850042,28.5064831 8.05393524,29.7729063 11.2909096,29.0046856 C19.377809,27.087937 20.7656109,15.5722333 28.9484754,18.7706173 C37.1313398,21.9690014 18.3554123,40.8892874 22.8916055,52.2718835 C27.4277987,63.6506766 32.9937705,67.9937855 39.7482324,61.9773247 C46.5026942,55.9608639 33.0823536,52.0208807 37.6702203,43.5666504 C42.258087,35.1086171 53.2645379,25.4526158 43.6975625,9.69268315 C35.2194211,-4.2721993 12.5273821,0.922797821 3.81671001,11.6056286 Z" id="Path" fill="#004F74" fill-rule="nonzero"></path>
                        <path d="M37.0303945,78.6398479 C35.3062727,74.5673284 36.9292045,70.5778445 40.8989657,68.9926191 C44.868727,67.4111681 48.8034609,69.1851108 50.5314746,73.2576303 C52.1621903,77.1074634 50.8116931,81.115819 46.6162003,82.7916287 C42.6425472,84.3730797 38.6650021,82.489681 37.0303945,78.6398479 Z" id="Path" fill="#004F74" fill-rule="nonzero"></path>
                    </g>
                </g>
            </g>
        </g>
    </g>
</svg>