<?xml version="1.0" encoding="UTF-8"?>
<svg width="200px" height="200px" viewBox="0 0 200 200" version="1.1" xmlns="http://www.w3.org/2000/svg" xmlns:xlink="http://www.w3.org/1999/xlink">
    <title>semua kebutuhanmu@1x</title>
    <defs>
        <linearGradient x1="52.0254461%" y1="15.8548178%" x2="49.494382%" y2="55.713466%" id="linearGradient-1">
            <stop stop-color="#A7E3FF" offset="0%"></stop>
            <stop stop-color="#0095DA" offset="100%"></stop>
        </linearGradient>
        <linearGradient x1="51.0456824%" y1="39.3922258%" x2="45.7944454%" y2="93.2048177%" id="linearGradient-2">
            <stop stop-color="#A7E3FF" offset="0%"></stop>
            <stop stop-color="#0095DA" offset="100%"></stop>
        </linearGradient>
        <linearGradient x1="21.5318333%" y1="-10.0729249%" x2="98.8075661%" y2="133.202989%" id="linearGradient-3">
            <stop stop-color="#A7E3FF" stop-opacity="0" offset="0.03107331%"></stop>
            <stop stop-color="#0095DA" offset="100%"></stop>
        </linearGradient>
        <linearGradient x1="23.9621142%" y1="8.93106295%" x2="89.8944283%" y2="112.7264%" id="linearGradient-4">
            <stop stop-color="#A7E3FF" stop-opacity="0" offset="0.03107331%"></stop>
            <stop stop-color="#0095DA" offset="100%"></stop>
        </linearGradient>
        <linearGradient x1="14.0995344%" y1="-3.79500446%" x2="98.2178702%" y2="141.405787%" id="linearGradient-5">
            <stop stop-color="#A7E3FF" stop-opacity="0" offset="0.03107331%"></stop>
            <stop stop-color="#0095DA" offset="100%"></stop>
        </linearGradient>
        <linearGradient x1="42.9237264%" y1="40.1381073%" x2="74.775807%" y2="84.9520264%" id="linearGradient-6">
            <stop stop-color="#947CC1" offset="0%"></stop>
            <stop stop-color="#7251A1" offset="100%"></stop>
        </linearGradient>
        <linearGradient x1="25.6152351%" y1="32.6818605%" x2="72.8276191%" y2="66.3299082%" id="linearGradient-7">
            <stop stop-color="#007BB5" offset="0%"></stop>
            <stop stop-color="#123D89" offset="100%"></stop>
        </linearGradient>
        <linearGradient x1="48.041436%" y1="46.5821263%" x2="76.8193097%" y2="89.5230495%" id="linearGradient-8">
            <stop stop-color="#007BB5" offset="0%"></stop>
            <stop stop-color="#123D89" offset="100%"></stop>
        </linearGradient>
        <linearGradient x1="37.5106709%" y1="36.1175081%" x2="84.4364328%" y2="87.5487962%" id="linearGradient-9">
            <stop stop-color="#A7E3FF" offset="0%"></stop>
            <stop stop-color="#0095DA" offset="100%"></stop>
        </linearGradient>
        <linearGradient x1="39.2669%" y1="37.2029284%" x2="83.5685349%" y2="90.3194027%" id="linearGradient-10">
            <stop stop-color="#947CC1" offset="0%"></stop>
            <stop stop-color="#7251A1" offset="100%"></stop>
        </linearGradient>
        <linearGradient x1="25.5507931%" y1="34.0260299%" x2="72.7955173%" y2="65.1139098%" id="linearGradient-11">
            <stop stop-color="#007BB5" offset="0%"></stop>
            <stop stop-color="#123D89" offset="100%"></stop>
        </linearGradient>
        <linearGradient x1="27.2938004%" y1="32.545694%" x2="56.9488169%" y2="64.1853458%" id="linearGradient-12">
            <stop stop-color="#947CC1" offset="0%"></stop>
            <stop stop-color="#7251A1" offset="100%"></stop>
        </linearGradient>
        <linearGradient x1="39.5045649%" y1="43.879045%" x2="54.5025094%" y2="53.9986076%" id="linearGradient-13">
            <stop stop-color="#F9B260" offset="0%"></stop>
            <stop stop-color="#EB8208" offset="100%"></stop>
        </linearGradient>
        <linearGradient x1="31.4630705%" y1="28.5643638%" x2="71.7719842%" y2="75.7626362%" id="linearGradient-14">
            <stop stop-color="#F9B260" offset="0%"></stop>
            <stop stop-color="#EB8208" offset="100%"></stop>
        </linearGradient>
        <linearGradient x1="24.0304422%" y1="14.8632524%" x2="89.8818212%" y2="103.750527%" id="linearGradient-15">
            <stop stop-color="#A7E3FF" stop-opacity="0" offset="0.03107331%"></stop>
            <stop stop-color="#0095DA" offset="100%"></stop>
        </linearGradient>
        <linearGradient x1="37.7448189%" y1="23.3351778%" x2="48.6296289%" y2="46.4288988%" id="linearGradient-16">
            <stop stop-color="#F9B260" offset="0%"></stop>
            <stop stop-color="#EB8208" offset="100%"></stop>
        </linearGradient>
        <linearGradient x1="47.832013%" y1="47.4923948%" x2="80.8087246%" y2="86.4207761%" id="linearGradient-17">
            <stop stop-color="#F9B260" offset="0%"></stop>
            <stop stop-color="#EB8208" offset="100%"></stop>
        </linearGradient>
        <linearGradient x1="48.5979776%" y1="49.2895585%" x2="121.279871%" y2="77.0954856%" id="linearGradient-18">
            <stop stop-color="#007BB5" offset="0%"></stop>
            <stop stop-color="#123D89" offset="100%"></stop>
        </linearGradient>
        <linearGradient x1="26.6825473%" y1="22.4371893%" x2="77.4607903%" y2="78.73105%" id="linearGradient-19">
            <stop stop-color="#A7E3FF" offset="0%"></stop>
            <stop stop-color="#0095DA" offset="100%"></stop>
        </linearGradient>
        <linearGradient x1="40.6731578%" y1="51.0316171%" x2="23.8740063%" y2="34.3991468%" id="linearGradient-20">
            <stop stop-color="#007BB5" offset="29.51%"></stop>
            <stop stop-color="#123D89" offset="100%"></stop>
        </linearGradient>
        <linearGradient x1="106.29235%" y1="59.442073%" x2="11.7639378%" y2="43.9459151%" id="linearGradient-21">
            <stop stop-color="#A7E3FF" offset="0%"></stop>
            <stop stop-color="#0095DA" offset="100%"></stop>
        </linearGradient>
        <linearGradient x1="27.2044502%" y1="30.7525589%" x2="46.0439409%" y2="46.3676686%" id="linearGradient-22">
            <stop stop-color="#F9B260" offset="0%"></stop>
            <stop stop-color="#EB8208" offset="100%"></stop>
        </linearGradient>
        <linearGradient x1="44.9090583%" y1="45.834411%" x2="65.6189309%" y2="62.7847952%" id="linearGradient-23">
            <stop stop-color="#F9B260" offset="0%"></stop>
            <stop stop-color="#EB8208" offset="100%"></stop>
        </linearGradient>
        <linearGradient x1="12.5538551%" y1="37.5891441%" x2="103.791021%" y2="61.9924537%" id="linearGradient-24">
            <stop stop-color="#F9B260" offset="0%"></stop>
            <stop stop-color="#EB8208" offset="100%"></stop>
        </linearGradient>
        <linearGradient x1="0.951818655%" y1="-22.1393952%" x2="48.3267992%" y2="34.2399628%" id="linearGradient-25">
            <stop stop-color="#947CC1" offset="0%"></stop>
            <stop stop-color="#7251A1" offset="100%"></stop>
        </linearGradient>
        <linearGradient x1="29.6972627%" y1="32.4234015%" x2="61.8653387%" y2="59.3907325%" id="linearGradient-26">
            <stop stop-color="#A7E3FF" offset="0%"></stop>
            <stop stop-color="#0095DA" offset="100%"></stop>
        </linearGradient>
        <linearGradient x1="32.9761038%" y1="29.1754833%" x2="72.899145%" y2="76.2101946%" id="linearGradient-27">
            <stop stop-color="#A7E3FF" offset="0%"></stop>
            <stop stop-color="#0095DA" offset="100%"></stop>
        </linearGradient>
        <linearGradient x1="32.8102228%" y1="29.7331726%" x2="72.6133076%" y2="76.2034158%" id="linearGradient-28">
            <stop stop-color="#007BB5" offset="0%"></stop>
            <stop stop-color="#123D89" offset="100%"></stop>
        </linearGradient>
        <linearGradient x1="-3.86376416%" y1="58.2656498%" x2="76.4028878%" y2="37.8334816%" id="linearGradient-29">
            <stop stop-color="#F9B260" offset="0%"></stop>
            <stop stop-color="#EB8208" offset="100%"></stop>
        </linearGradient>
        <linearGradient x1="41.7361289%" y1="48.1592037%" x2="53.7247474%" y2="51.7350941%" id="linearGradient-30">
            <stop stop-color="#007BB5" offset="0%"></stop>
            <stop stop-color="#123D89" offset="100%"></stop>
        </linearGradient>
        <linearGradient x1="47.617454%" y1="54.5029001%" x2="27.5432308%" y2="40.5898877%" id="linearGradient-31">
            <stop stop-color="#F9B260" offset="0%"></stop>
            <stop stop-color="#EB8208" offset="100%"></stop>
        </linearGradient>
        <linearGradient x1="34.1112338%" y1="43.7140106%" x2="51.2380693%" y2="50.3744272%" id="linearGradient-32">
            <stop stop-color="#F9B260" offset="0%"></stop>
            <stop stop-color="#EB8208" offset="100%"></stop>
        </linearGradient>
        <linearGradient x1="28.8025376%" y1="35.6437953%" x2="56.7806913%" y2="54.4794616%" id="linearGradient-33">
            <stop stop-color="#007BB5" offset="0%"></stop>
            <stop stop-color="#123D89" offset="100%"></stop>
        </linearGradient>
        <linearGradient x1="29.2658473%" y1="36.4187362%" x2="73.8377634%" y2="65.3760834%" id="linearGradient-34">
            <stop stop-color="#A7E3FF" offset="0%"></stop>
            <stop stop-color="#0095DA" offset="100%"></stop>
        </linearGradient>
        <linearGradient x1="16.7433761%" y1="8.12148751%" x2="68.4523897%" y2="52.6212718%" id="linearGradient-35">
            <stop stop-color="#F9B260" offset="0%"></stop>
            <stop stop-color="#EB8208" offset="100%"></stop>
        </linearGradient>
        <linearGradient x1="-180.713334%" y1="-50.4283918%" x2="77.4686757%" y2="61.9839429%" id="linearGradient-36">
            <stop stop-color="#A7E3FF" offset="0%"></stop>
            <stop stop-color="#0095DA" offset="100%"></stop>
        </linearGradient>
        <linearGradient x1="6.08591654%" y1="32.5499174%" x2="100.487721%" y2="70.0338505%" id="linearGradient-37">
            <stop stop-color="#A7E3FF" offset="0%"></stop>
            <stop stop-color="#0095DA" offset="100%"></stop>
        </linearGradient>
        <linearGradient x1="43.2599904%" y1="48.3483163%" x2="56.9681923%" y2="51.5091609%" id="linearGradient-38">
            <stop stop-color="#A7E3FF" offset="0%"></stop>
            <stop stop-color="#0095DA" offset="100%"></stop>
        </linearGradient>
        <linearGradient x1="34.1516408%" y1="44.2766381%" x2="65.5844745%" y2="55.7189477%" id="linearGradient-39">
            <stop stop-color="#007BB5" offset="0%"></stop>
            <stop stop-color="#123D89" offset="100%"></stop>
        </linearGradient>
        <linearGradient x1="0.269257615%" y1="-3.6234021%" x2="75.318828%" y2="97.7788167%" id="linearGradient-40">
            <stop stop-color="#F9B260" offset="0%"></stop>
            <stop stop-color="#EB8208" offset="100%"></stop>
        </linearGradient>
    </defs>
    <g id="02.-Desktop" stroke="none" stroke-width="1" fill="none" fill-rule="evenodd">
        <g id="Desktop---Gold---Landing-Page" transform="translate(-1021.000000, -1429.000000)">
            <g id="usp-items" transform="translate(120.000000, 1397.000000)">
                <g id="usp-3" transform="translate(800.000000, 0.000000)">
                    <g id="semua-kebutuhanmu" transform="translate(101.000000, 32.000000)">
                        <circle id="Oval" fill="#DAF3FF" fill-rule="nonzero" cx="100" cy="100" r="100"></circle>
                        <g id="Group" transform="translate(22.950820, 28.571429)" fill-rule="nonzero">
                            <path d="M170.491803,115.178571 L164.659189,113.35034 L93.9948231,16.3321995 C89.732528,10.4818594 80.8714409,7.43480726 74.253667,9.50680272 L7.40293356,30.4705215 C6.95427092,30.5924036 6.50560828,30.8361678 6.05694564,30.9580499 L1.90681622,28.5204082 L0.78515962,37.4178005 L0.89732528,37.4178005 C0.5608283,39.7335601 1.23382226,42.2930839 3.02847282,44.7307256 L76.2726488,145.405329 C80.5349439,151.255669 89.3960311,154.302721 96.013805,152.230726 L162.864538,131.388889 C166.790336,130.170068 169.145815,127.36678 169.482312,124.075964 L169.594478,124.075964 L170.491803,115.178571 Z" id="Path" fill="url(#linearGradient-1)"></path>
                            <path d="M163.874029,123.344671 L97.0232959,144.186508 C90.2933563,146.258503 81.4322692,143.211451 77.2821398,137.361111 L3.9257981,36.6865079 C-0.33649698,30.8361678 1.6824849,24.3764172 8.30025884,22.3044218 L75.1509922,1.46258503 C81.8809318,-0.609410431 90.742019,2.43764172 94.8921484,8.28798186 L168.136324,108.962585 C172.510785,114.812925 170.491803,121.272676 163.874029,123.344671 Z" id="Path" fill="url(#linearGradient-2)"></path>
                            <path d="M164.659189,112.009637 L91.4150129,11.335034 C88.9473684,7.9223356 84.0120794,5.72845805 79.6376186,5.72845805 C78.515962,5.72845805 77.3943054,5.85034014 76.3848145,6.21598639 L63.8222606,10.1162132 L62.8127696,15.9665533 L32.0793788,25.3514739 L25.4616048,22.3044218 L9.5340811,27.3015873 C7.8515962,27.7891156 6.61777394,28.7641723 6.28127696,29.8611111 C5.94477998,30.9580499 6.39344262,32.2987528 7.40293356,33.7613379 L80.6471096,134.435941 C83.7877481,138.701814 90.742019,141.017574 95.5651424,139.554989 L162.415876,118.713152 C164.098361,118.225624 165.332183,117.250567 165.66868,116.153628 C166.117343,114.934807 165.66868,113.472222 164.659189,112.009637 Z" id="Path" fill="#FFFFFF"></path>
                        </g>
                        <path d="M50.8617143,107.142857 L62.1196473,103.721836 C64.4784523,102.98876 65.7650732,101.156071 65.5506364,99.2012015 C65.5506364,98.3459463 65.2289812,97.3685118 64.5856707,96.5132566 L56.2226348,85.3949387 C54.2927034,82.8291731 50.2184038,81.4852006 47.0018515,82.4626351 L36.0655738,85.7614767 L50.8617143,107.142857 Z" id="Path" fill="url(#linearGradient-3)" fill-rule="nonzero"></path>
                        <path d="M108.148472,54.5285998 C108.148472,53.6356364 107.809447,52.4875407 107.01839,51.5945774 L97.7517167,39.348223 C95.6045607,36.5417668 91.0842323,35.0109725 87.5809778,36.0315021 L72.6638941,40.4963188 C71.1947873,40.8790173 70.1777134,41.7719807 69.6126724,42.7925102 C68.4825903,44.3233045 68.5955985,46.4919297 70.0647052,48.4054226 L79.3313785,60.651777 C81.4785344,63.4582332 85.9988628,64.9890275 89.5021174,63.9684979 L104.419201,59.5036812 C107.01839,58.7382841 108.487497,56.697225 108.148472,54.5285998 Z" id="Path" fill="url(#linearGradient-4)" fill-rule="nonzero"></path>
                        <path d="M156.986085,92.8571429 L148.204838,95.3335619 C146.759823,95.8052608 145.648273,96.5128091 145.092498,97.4562069 C143.869793,98.8713035 143.980948,100.993948 145.537118,102.762819 L154.985294,114.437366 C157.208395,117.149635 161.76575,118.564732 165.322711,117.503409 L173.770492,115.144915 L156.986085,92.8571429 Z" id="Path" fill="url(#linearGradient-5)" fill-rule="nonzero"></path>
                        <g id="Group" transform="translate(16.393443, 7.142857)" fill="#A8DAE9" fill-rule="nonzero" opacity="0.8">
                            <path d="M4.95901639,105.308219 L0.788934426,108.855186 C0.56352459,108.977495 0.676229508,109.344423 0.901639344,109.466732 L6.76229508,111.423679 C6.98770492,111.545988 7.21311475,111.30137 7.21311475,110.934442 L5.52254098,105.430528 C5.40983607,105.308219 5.18442623,105.18591 4.95901639,105.308219 Z" id="Path"></path>
                            <path d="M174.016393,46.9667319 L169.846311,50.5136986 C169.620902,50.6360078 169.733607,51.0029354 169.959016,51.1252446 L175.819672,53.0821918 C176.045082,53.204501 176.270492,52.9598826 176.270492,52.592955 L174.579918,47.0890411 C174.467213,46.8444227 174.129098,46.8444227 174.016393,46.9667319 Z" id="Path"></path>
                            <path d="M75.3995902,5.87084149 L72.0184426,0.856164384 C71.454918,4.34374758e-15 70.4405738,-0.122309198 69.6516393,0.489236791 L69.6516393,0.489236791 C68.8627049,1.10078278 68.75,2.20156556 69.3135246,3.05772994 L72.6946721,8.07240705 C73.2581967,8.92857143 74.272541,9.05088063 75.0614754,8.43933464 L75.0614754,8.43933464 C75.7377049,7.82778865 75.8504098,6.72700587 75.3995902,5.87084149 Z" id="Path"></path>
                            <g transform="translate(60.860656, 171.232877)" id="Path">
                                <path d="M5.74795082,3.91389432 C5.74795082,5.50391389 4.50819672,6.72700587 3.1557377,6.72700587 C1.69057377,6.72700587 0.56352459,5.3816047 0.56352459,3.91389432 C0.56352459,2.44618395 1.80327869,1.10078278 3.1557377,1.10078278 C4.50819672,0.978473581 5.74795082,2.32387476 5.74795082,3.91389432 Z"></path>
                            </g>
                            <g transform="translate(173.565574, 101.516634)" id="Path">
                                <path d="M6.08606557,2.93542074 C6.08606557,4.52544031 4.84631148,5.74853229 3.49385246,5.74853229 C2.02868852,5.74853229 0.901639344,4.40313112 0.901639344,2.93542074 C0.901639344,1.46771037 2.14139344,0.122309198 3.49385246,0.122309198 C4.95901639,0 6.08606557,1.34540117 6.08606557,2.93542074 Z"></path>
                            </g>
                        </g>
                        <g id="Group" transform="translate(137.704918, 60.714286)">
                            <path d="M25.7923497,34.2857143 L44.2622951,29.047619 C48.5245902,27.8571429 50.3825137,23.8095238 47.6502732,20.4761905 L35.7377049,6.19047619 C33.1147541,2.85714286 27.431694,1.07142857 23.1693989,2.26190476 L4.3715847,7.38095238 C0.109289617,8.57142857 -0.87431694,12.6190476 1.8579235,15.952381 L13.3333333,30.4761905 C15.8469945,33.8095238 21.5300546,35.4761905 25.7923497,34.2857143 Z" id="Path" fill="#7251A1"></path>
                            <path d="M26.1202186,33.2142857 L44.5901639,27.9761905 C48.852459,26.7857143 50.1639344,23.0952381 47.5409836,19.6428571 L36.0655738,5.11904762 C33.442623,1.78571429 27.7595628,2.22044605e-16 23.4972678,1.19047619 L5.0273224,6.42857143 C0.765027322,7.61904762 -0.546448087,11.3095238 2.07650273,14.7619048 L13.5519126,29.2857143 C16.1748634,32.7380952 21.8579235,34.4047619 26.1202186,33.2142857 Z" id="Path" fill="url(#linearGradient-6)"></path>
                        </g>
                        <g id="Group" transform="translate(29.508197, 125.000000)">
                            <path d="M37.4863388,49.4047619 L64.4808743,41.7857143 C70.7103825,40 73.3333333,34.1666667 69.5081967,29.2857143 L52.1311475,8.45238095 C48.3060109,3.57142857 40.1092896,0.952380952 33.7704918,2.73809524 L6.2295082,10 C-1.16018306e-14,11.7857143 -1.31147541,17.6190476 2.5136612,22.5 L19.2349727,43.6904762 C22.9508197,48.6904762 31.2568306,51.1904762 37.4863388,49.4047619 Z" id="Path" fill="#1E2F7C"></path>
                            <path d="M37.9234973,47.8571429 L64.9180328,40.2380952 C71.147541,38.452381 73.1147541,32.9761905 69.1803279,28.0952381 L52.4590164,6.9047619 C48.6338798,2.02380952 40.4371585,-0.595238095 34.0983607,1.19047619 L7.10382514,8.80952381 C0.87431694,10.5952381 -1.09289617,16.0714286 2.84153005,20.952381 L19.5628415,42.1428571 C23.4972678,47.1428571 31.6939891,49.6428571 37.9234973,47.8571429 Z" id="Path" fill="url(#linearGradient-7)"></path>
                        </g>
                        <g id="Group" transform="translate(65.573770, 21.428571)">
                            <path d="M24.0703719,31.4285714 L41.3114754,26.6666667 C45.3418633,25.5952381 47.0211915,21.9047619 44.5581767,18.8095238 L33.3626549,5.83333333 C30.8996401,2.73809524 25.6377449,1.19047619 21.6073571,2.26190476 L3.91843263,6.78571429 C-0.111955218,7.85714286 -0.895641743,11.547619 1.56737305,14.6428571 L12.315074,27.9761905 C14.7780888,30.952381 20.039984,32.6190476 24.0703719,31.4285714 Z" id="Path" fill="url(#linearGradient-8)"></path>
                            <path d="M24.2942823,30.4761905 L41.5353858,25.7142857 C45.5657737,24.6428571 46.7972811,21.1904762 44.3342663,18.0952381 L33.5865654,4.88095238 C31.1235506,1.78571429 25.8616553,0.238095238 21.8312675,1.30952381 L4.59016393,6.07142857 C0.55977609,7.14285714 -0.671731307,10.5952381 1.79128349,13.6904762 L12.5389844,26.9047619 C15.1139544,30 20.3758497,31.6666667 24.2942823,30.4761905 Z" id="Path" fill="url(#linearGradient-9)"></path>
                        </g>
                        <g id="Group" transform="translate(0.000000, 53.571429)">
                            <path d="M32.6775956,41.7857143 L55.7377049,35.2380952 C61.0928962,33.6904762 63.2786885,28.8095238 60,24.5238095 L45.136612,6.78571429 C41.8579235,2.61904762 34.863388,0.476190476 29.5081967,1.9047619 L6.01092896,8.21428571 C0.655737705,9.76190476 -0.43715847,14.6428571 2.84153005,18.9285714 L17.0491803,37.0238095 C20.3278689,41.0714286 27.3224044,43.3333333 32.6775956,41.7857143 Z" id="Path" fill="#7251A1"></path>
                            <path d="M33.1147541,40.4761905 L56.1748634,33.9285714 C61.5300546,32.3809524 63.1693989,27.7380952 59.8907104,23.5714286 L45.6830601,5.47619048 C42.4043716,1.30952381 35.4098361,-0.833333333 30.0546448,0.595238095 L6.8852459,7.14285714 C1.53005464,8.69047619 -0.109289617,13.3333333 3.16939891,17.5 L17.3770492,35.5952381 C20.7650273,39.7619048 27.7595628,41.9047619 33.1147541,40.4761905 Z" id="Path" fill="url(#linearGradient-10)"></path>
                        </g>
                        <g id="Group" transform="translate(121.311475, 3.571429)">
                            <path d="M36.0920148,45.7321429 L61.8561608,38.6517857 C67.8529878,37.0267857 70.2961396,31.6875 66.631412,27.1607143 L49.973559,8.125 C46.3088313,3.59821429 38.4241142,1.27678571 32.4272871,2.90178571 L6.10787943,9.63392857 C0.111052353,11.2589286 -1.11052353,16.5982143 2.55420412,21.125 L18.545743,40.5089286 C22.2104707,45.0357143 30.0951877,47.3571429 36.0920148,45.7321429 Z" id="Path" fill="#1E2F7C"></path>
                            <path d="M36.5362242,44.2232143 L62.3003702,37.1428571 C68.2971973,35.5178571 70.0740349,30.5267857 66.4093072,26 L50.4177684,6.61607143 C46.7530407,2.08928571 38.8683236,-0.232142857 32.8714966,1.39285714 L7.10735061,8.47321429 C1.11052353,10.0982143 -0.66631412,15.0892857 2.99841354,19.6160714 L18.9899524,39 C22.6546801,43.5267857 30.5393971,45.9642857 36.5362242,44.2232143 Z" id="Path" fill="url(#linearGradient-11)"></path>
                        </g>
                        <g id="Group" transform="translate(75.409836, 25.000000)" fill-rule="nonzero">
                            <path d="M25.8764187,10.7142857 L25.8764187,10.7142857 C24.4010088,9.20168067 22.4716267,8.06722689 20.2017654,7.31092437 C19.5208071,7.05882353 18.8398487,7.05882353 18.1588903,7.18487395 L17.591425,7.31092437 L17.0239596,6.55462185 C16.6834805,6.05042017 16.0025221,5.79831933 15.4350567,5.79831933 C14.6406053,5.92436975 14.4136192,6.55462185 14.7540984,7.05882353 L14.9810845,7.43697479 C15.2080706,7.68907563 14.9810845,7.94117647 14.6406053,8.06722689 L12.5977301,8.82352941 C12.2572509,8.94957983 11.9167718,8.82352941 11.6897856,8.44537815 L11.3493064,8.06722689 C11.0088272,7.56302521 10.3278689,7.31092437 9.76040353,7.31092437 C8.96595208,7.43697479 8.73896595,8.06722689 9.07944515,8.57142857 L9.64691047,9.45378151 L9.07944515,9.70588235 C8.51197982,9.83193277 7.9445145,10.210084 7.71752837,10.7142857 C7.03656999,12.2268908 6.92307692,13.9915966 7.37704918,15.7563025 L7.37704918,15.7563025 C7.60403531,16.6386555 8.05800757,17.5210084 8.62547289,18.4033613 L8.96595208,18.907563 C9.64691047,19.9159664 11.2358134,20.4201681 12.4842371,20.1680672 L27.1248424,16.2605042 C28.3732661,15.8823529 28.9407314,14.7478992 28.259773,13.7394958 L27.9192938,13.2352941 C27.3518285,12.3529412 26.6708701,11.4705882 25.8764187,10.7142857 Z" id="Path" fill="url(#linearGradient-12)"></path>
                            <path d="M20.2017654,7.31092437 C19.5208071,7.05882353 18.8398487,7.05882353 18.1588903,7.18487395 L17.591425,7.31092437 L17.0239596,6.55462185 C16.6834805,6.05042017 16.0025221,5.79831933 15.4350567,5.79831933 C14.6406053,5.92436975 14.4136192,6.55462185 14.7540984,7.05882353 L14.9810845,7.43697479 C15.2080706,7.68907563 14.9810845,7.94117647 14.6406053,8.06722689 L12.5977301,8.57142857 C13.0517024,8.69747899 13.5056747,8.82352941 13.9596469,8.82352941 C14.6406053,8.94957983 15.3215637,8.94957983 16.0025221,8.94957983 C16.9104666,8.94957983 18.0453972,9.07563025 18.4993695,9.70588235 C18.8398487,10.0840336 18.8398487,10.5882353 19.1803279,10.9663866 C19.7477932,11.5966387 20.8827238,11.5966387 21.5636822,12.1008403 C22.1311475,12.4789916 22.2446406,13.2352941 22.0176545,13.7394958 C21.6771753,14.4957983 20.8827238,15 20.0882724,15.5042017 C19.2938209,16.0084034 18.4993695,16.3865546 18.0453972,17.1428571 C17.8184111,17.5210084 17.704918,18.0252101 17.8184111,18.5294118 L27.0113493,16.0084034 C28.259773,15.6302521 28.8272383,14.4957983 28.1462799,13.487395 L27.8058008,12.9831933 C27.2383354,12.1008403 26.557377,11.2184874 25.7629256,10.4621849 C24.2875158,9.32773109 22.3581337,8.06722689 20.2017654,7.31092437 Z" id="Path" fill="#694899" opacity="0.5"></path>
                            <path d="M19.1803279,1.00840336 L18.8398487,1.00840336 C15.5485498,0.504201681 12.1437579,0.756302521 9.19293821,1.51260504 C6.24211854,2.26890756 3.74527112,3.78151261 1.81588903,5.54621849 L1.5889029,5.67226891 C0.680958386,6.55462185 0.567465322,7.94117647 1.47540984,9.07563025 C2.15636822,10.0840336 3.63177806,10.4621849 4.7667087,10.210084 L6.58259773,9.70588235 C7.49054224,9.45378151 7.83102144,8.69747899 7.37704918,7.94117647 C6.58259773,6.30252101 7.49054224,4.53781513 9.5334174,4.03361345 L10.668348,3.78151261 L11.8032787,3.52941176 C13.8461538,3.02521008 16.3430013,3.78151261 17.591425,5.29411765 C18.1588903,5.92436975 19.1803279,6.30252101 20.0882724,6.17647059 L21.9041614,5.67226891 C23.0390921,5.29411765 23.6065574,4.28571429 23.0390921,3.40336134 C22.2446406,2.14285714 20.7692308,1.2605042 19.1803279,1.00840336 Z" id="Path" fill="url(#linearGradient-13)"></path>
                            <g transform="translate(6.935687, 5.252101)">
                                <ellipse id="Oval" fill="#F2F2F2" transform="translate(4.900822, 6.744622) rotate(-78.802430) translate(-4.900822, -6.744622) " cx="4.90082219" cy="6.74462185" rx="1" ry="1"></ellipse>
                                <ellipse id="Oval" fill="#F2F2F2" transform="translate(8.329448, 5.814445) rotate(-78.802430) translate(-8.329448, -5.814445) " cx="8.32944767" cy="5.81444538" rx="1" ry="1"></ellipse>
                                <ellipse id="Oval" fill="#F2F2F2" transform="translate(11.646736, 4.859664) rotate(-78.802430) translate(-11.646736, -4.859664) " cx="11.6467364" cy="4.85966387" rx="1" ry="1"></ellipse>
                                <ellipse id="Oval" fill="#F2F2F2" transform="translate(6.323072, 9.035034) rotate(-78.802430) translate(-6.323072, -9.035034) " cx="6.32307188" cy="9.03503361" rx="1" ry="1"></ellipse>
                                <ellipse id="Oval" fill="#F2F2F2" transform="translate(9.751697, 8.104857) rotate(-78.802430) translate(-9.751697, -8.104857) " cx="9.75169735" cy="8.10485714" rx="1" ry="1"></ellipse>
                                <ellipse id="Oval" fill="#F2F2F2" transform="translate(13.180323, 7.174555) rotate(-78.802430) translate(-13.180323, -7.174555) " cx="13.1803228" cy="7.17455462" rx="1" ry="1"></ellipse>
                                <ellipse id="Oval" fill="#F2F2F2" transform="translate(7.856658, 11.349924) rotate(-78.802430) translate(-7.856658, -11.349924) " cx="7.85665826" cy="11.3499244" rx="1" ry="1"></ellipse>
                                <ellipse id="Oval" fill="#F2F2F2" transform="translate(11.174061, 10.395269) rotate(-78.802430) translate(-11.174061, -10.395269) " cx="11.1740605" cy="10.3952689" rx="1" ry="1"></ellipse>
                                <path d="M15.4224464,9.24369748 C15.6494325,9.62184874 15.5359395,10 14.9684741,10.1260504 C14.4010088,10.2521008 13.9470366,10 13.7200504,9.62184874 C13.4930643,9.24369748 13.6065574,8.86554622 14.1740227,8.7394958 C14.627995,8.7394958 15.1954603,8.86554622 15.4224464,9.24369748 Z" id="Path" fill="url(#linearGradient-14)"></path>
                            </g>
                        </g>
                        <path d="M124.548723,97.4339342 C124.548723,96.5185759 124.22135,95.4887979 123.348358,94.4590198 L113.308944,82.216103 C111.017338,79.3556084 106.106756,77.8681513 102.287413,78.8979293 L86.1370515,83.3603009 C84.5001906,83.81798 83.4089499,84.6189185 82.8633296,85.6486965 C81.5538408,87.1361537 81.6629649,89.3101296 83.2998258,91.2552659 L93.3392399,103.498183 C95.6308453,106.358677 100.541428,107.846134 104.36077,106.816356 L120.511132,102.353985 C123.239234,101.667466 124.876095,99.6079101 124.548723,97.4339342 Z" id="Path" fill="url(#linearGradient-15)" fill-rule="nonzero"></path>
                        <g id="Group" transform="translate(81.967213, 71.428571)">
                            <g id="Path">
                                <path d="M23.9115517,31.6836735 L41.0979794,26.8622449 C45.0476554,25.7142857 46.7556233,22.0408163 44.3004194,18.9413265 L33.1986275,5.73979592 C30.7434236,2.64030612 25.5127716,1.03316327 21.4563477,2.18112245 L3.84292795,6.77295918 C-0.106747998,7.92091837 -0.960731986,11.5943878 1.49447198,14.6938776 L12.1692718,28.125 C14.6244758,31.1096939 19.9618757,32.7168367 23.9115517,31.6836735 Z" fill="url(#linearGradient-16)"></path>
                                <path d="M24.2317957,30.6505102 L41.4182234,25.8290816 C45.3678994,24.6811224 46.6488753,21.2372449 44.1936714,18.1377551 L33.5188715,4.70663265 C31.0636676,1.60714286 25.8330156,2.22044605e-16 21.7765917,1.14795918 L4.59016393,5.96938776 C0.640487991,7.11734694 -0.640487991,10.5612245 1.81471597,13.6607143 L12.4895158,27.0918367 C14.9447198,30.1913265 20.1753717,31.7984694 24.2317957,30.6505102 Z" fill="url(#linearGradient-17)"></path>
                            </g>
                            <g transform="translate(8.539840, 4.591837)" fill-rule="nonzero">
                                <g id="Path">
                                    <path d="M26.1532596,18.252551 L15.1582158,21.4668367 C13.7704918,21.8112245 12.1692718,21.3520408 11.4220358,20.4336735 L1.17422798,6.42857143 C0.426991994,5.51020408 0.960731986,4.3622449 2.34845597,4.01785714 L13.3434998,0.803571429 C14.7312238,0.459183673 16.3324438,0.918367347 17.0796798,1.83673469 L27.3274876,15.8418367 C28.0747236,16.7602041 27.5409836,17.7933673 26.1532596,18.252551 Z" fill="url(#linearGradient-18)"></path>
                                    <g opacity="0.4" transform="translate(5.337400, 0.000000)" fill="#0095DA">
                                        <path d="M8.00609989,0.68877551 L0.640487991,2.86989796 C1.28097598,3.21428571 3.41593595,4.13265306 5.23065193,3.44387755 C8.86008387,2.18112245 13.0232558,3.78826531 10.2478079,8.49489796 C9.18032787,10.3316327 9.82081586,12.627551 13.6637438,14.5790816 C15.7987038,15.6122449 16.5459398,17.4489796 11.4220358,19.2857143 C9.82081586,19.8596939 9.60731986,20.4336735 9.39382387,21.4668367 C9.50057186,21.4668367 9.71406786,21.4668367 9.82081586,21.3520408 L20.8158597,18.1377551 C22.2035837,17.7933673 22.6305757,16.6454082 21.9900877,15.7270408 L11.7422798,1.72193878 C10.9950438,0.803571429 9.28707587,0.344387755 8.00609989,0.68877551 Z"></path>
                                    </g>
                                    <path d="M13.7704918,2.18112245 L11.7422798,2.75510204 C11.5287838,2.75510204 11.4220358,2.98469388 11.4220358,3.0994898 L11.3152878,3.67346939 C11.3152878,3.78826531 11.2085398,3.90306122 10.9950438,4.01785714 L7.89935189,4.93622449 C7.68585589,4.93622449 7.47235989,4.93622449 7.2588639,4.93622449 L6.51162791,4.59183673 C6.29813191,4.47704082 6.08463591,4.47704082 5.87113992,4.59183673 L3.62943195,5.28061224 C2.98894396,5.51020408 2.77544796,5.96938776 3.09569196,6.42857143 L12.4895158,19.1709184 C13.0232558,19.8596939 14.0907358,20.2040816 15.0514678,19.9744898 L23.9115517,17.3341837 C24.8722836,17.1045918 25.1925276,16.3010204 24.6587876,15.6122449 L15.2649638,2.86989796 C15.1582158,2.18112245 14.4109798,2.06632653 13.7704918,2.18112245 Z" fill="url(#linearGradient-19)"></path>
                                    <path d="M13.7704918,2.18112245 L11.7422798,2.75510204 C11.5287838,2.75510204 11.4220358,2.98469388 11.4220358,3.0994898 L11.4220358,3.32908163 C14.8379718,2.64030612 18.1471597,4.3622449 15.5852078,8.60969388 C14.5177278,10.4464286 15.1582158,12.7423469 19.0011437,14.6938776 C21.1361037,15.7270408 21.8833397,17.5637755 16.7594358,19.4005102 C16.7594358,19.4005102 16.7594358,19.4005102 16.7594358,19.4005102 L24.1250477,17.2193878 C25.0857796,16.9897959 25.4060236,16.1862245 24.8722836,15.497449 L15.4784598,2.75510204 C15.1582158,2.18112245 14.4109798,2.06632653 13.7704918,2.18112245 Z" fill="#A7E3FF" opacity="0.3"></path>
                                </g>
                                <g transform="translate(8.539840, 6.887755)" fill="#FFFFFF">
                                    <ellipse id="Oval" transform="translate(6.860758, 5.758990) rotate(-84.122356) translate(-6.860758, -5.758990) " cx="6.86075791" cy="5.7589898" rx="1" ry="1.38877712"></ellipse>
                                    <path d="M3.84292795,5.28061224 C3.73617995,5.28061224 3.52268395,5.28061224 3.30918795,5.28061224 C2.98894396,5.16581633 2.77544796,4.93622449 2.88219596,4.70663265 C3.52268395,3.32908163 5.97788791,2.64030612 8.00609989,3.21428571 C8.32634388,3.32908163 8.53983988,3.55867347 8.43309188,3.78826531 C8.32634388,4.01785714 7.89935189,4.13265306 7.57910789,4.01785714 C6.19138391,3.67346939 4.59016393,4.13265306 4.16317194,5.05102041 C4.16317194,5.16581633 4.05642394,5.16581633 3.84292795,5.28061224 Z" id="Path"></path>
                                    <path d="M1.28097598,4.47704082 C1.17422798,4.47704082 0.960731986,4.47704082 0.747235989,4.47704082 C0.426991994,4.3622449 0.213495997,4.13265306 0.320243995,3.90306122 C1.38772398,1.60714286 5.44414792,0.344387755 8.96683187,1.37755102 C9.28707587,1.49234694 9.50057186,1.72193878 9.39382387,1.95153061 C9.28707587,2.18112245 8.86008387,2.29591837 8.53983988,2.18112245 C5.76439192,1.37755102 2.56195196,2.29591837 1.70796798,4.24744898 C1.49447198,4.3622449 1.38772398,4.47704082 1.28097598,4.47704082 Z" id="Path"></path>
                                </g>
                            </g>
                        </g>
                        <g id="Group" transform="translate(131.147541, 10.714286)" fill-rule="nonzero">
                            <path d="M29.3989071,18.8095238 L24.5901639,20.1190476 L26.4480874,22.7380952 C27.9781421,24.8809524 26.1202186,26.0714286 25.4644809,26.3095238 C23.8251366,26.7857143 36.3934426,23.2142857 36.3934426,23.2142857 C36.3934426,23.2142857 32.7868852,23.5714286 31.3661202,21.6666667 C30.1639344,20 29.3989071,18.8095238 29.3989071,18.8095238 Z" id="Path" fill="url(#linearGradient-20)"></path>
                            <path d="M38.0327869,22.5 L38.0327869,22.5 C37.5956284,22.2619048 37.1584699,22.1428571 36.7213115,22.2619048 L23.6065574,25.952381 C23.1693989,26.0714286 22.9508197,26.3095238 23.0601093,26.6666667 L23.0601093,26.6666667 C23.1693989,27.3809524 24.1530055,27.8571429 24.9180328,27.7380952 L38.0327869,24.047619 C38.7978142,23.8095238 38.7978142,22.9761905 38.0327869,22.5 Z" id="Path" fill="url(#linearGradient-21)"></path>
                            <path d="M11.2568306,25.8333333 C12.2404372,27.1428571 14.5355191,27.6190476 15.7377049,26.6666667 C17.9234973,25.1190476 21.7486339,22.9761905 28.0874317,21.1904762 C34.4262295,19.4047619 39.5628415,19.047619 42.8415301,19.1666667 C44.6994536,19.1666667 45.7923497,17.8571429 44.8087432,16.547619 L34.0983607,1.54761905 C33.3333333,0.476190476 31.5846995,0.119047619 30.4918033,0.833333333 C27.9781421,2.38095238 23.3879781,4.88095238 17.4863388,6.54761905 C11.5846995,8.21428571 5.46448087,8.69047619 1.96721311,8.80952381 C0.43715847,8.80952381 -0.218579235,10 0.43715847,10.952381 L11.2568306,25.8333333 Z" id="Path" fill="url(#linearGradient-22)"></path>
                            <path d="M31.9125683,1.78571429 C29.0710383,3.57142857 24.3715847,5.95238095 18.4699454,7.61904762 C12.4590164,9.28571429 6.44808743,9.76190476 2.5136612,10 C2.29508197,10 2.18579235,10.1190476 2.18579235,10.1190476 C2.18579235,10.2380952 2.07650273,10.3571429 2.18579235,10.4761905 L12.8961749,25.4761905 C13.1147541,25.8333333 13.5519126,25.952381 13.6612022,25.952381 C13.8797814,25.952381 14.2076503,26.0714286 14.5355191,25.8333333 C16.7213115,24.2857143 20.6557377,22.0238095 27.3224044,20.1190476 C33.989071,18.2142857 39.3442623,17.9761905 42.7322404,17.9761905 C43.1693989,17.9761905 43.3879781,17.7380952 43.4972678,17.6190476 C43.6065574,17.5 43.715847,17.2619048 43.4972678,16.9047619 L32.7868852,1.9047619 C32.6775956,1.78571429 32.568306,1.66666667 32.4590164,1.66666667 C32.2404372,1.66666667 32.0218579,1.66666667 31.9125683,1.78571429 Z" id="Path" fill="url(#linearGradient-23)"></path>
                            <path d="M30.6010929,0.714285714 C28.0874317,2.26190476 23.4972678,4.76190476 17.5956284,6.42857143 C17.2677596,6.54761905 16.9398907,6.66666667 16.6120219,6.66666667 C17.4863388,7.02380952 18.6885246,7.14285714 19.7814208,7.14285714 C21.5300546,7.14285714 23.2786885,6.9047619 24.8087432,7.5 C25.136612,7.61904762 25.5737705,7.85714286 25.6830601,8.21428571 C26.6666667,9.4047619 24.5901639,10.5952381 25.136612,11.9047619 C25.6830601,13.3333333 28.7431694,13.5714286 29.9453552,14.8809524 C31.0382514,15.952381 30.4918033,17.3809524 29.5081967,18.2142857 C28.5245902,19.1666667 26.9945355,19.7619048 26.1202186,20.7142857 C25.7923497,21.0714286 25.5737705,21.547619 25.4644809,21.9047619 C26.3387978,21.6666667 27.2131148,21.3095238 28.1967213,21.0714286 C34.5355191,19.2857143 39.6721311,18.9285714 42.9508197,19.047619 C44.8087432,19.047619 45.9016393,17.7380952 44.9180328,16.4285714 L34.2076503,1.42857143 C33.442623,0.476190476 31.6939891,0.119047619 30.6010929,0.714285714 Z" id="Path" fill="#FFD696" opacity="0.3"></path>
                            <g transform="translate(15.300546, 9.523810)" fill="#FFFFFF">
                                <ellipse id="Oval" transform="translate(8.960929, 6.355119) rotate(-82.530303) translate(-8.960929, -6.355119) " cx="8.96092896" cy="6.35511905" rx="1.18900678" ry="1.86074465"></ellipse>
                                <path d="M10.7103825,4.04761905 C10.4918033,4.04761905 10.273224,4.04761905 10.0546448,4.04761905 C8.19672131,3.45238095 6.12021858,4.04761905 5.57377049,5.35714286 C5.46448087,5.71428571 4.91803279,5.83333333 4.48087432,5.71428571 C4.04371585,5.5952381 3.71584699,5.23809524 3.93442623,4.88095238 C4.80874317,3.0952381 7.97814208,2.14285714 10.7103825,2.97619048 C11.147541,3.0952381 11.4754098,3.45238095 11.2568306,3.80952381 C11.147541,3.92857143 10.9289617,4.04761905 10.7103825,4.04761905 Z" id="Path"></path>
                                <path d="M11.8032787,1.78571429 C11.5846995,1.78571429 11.3661202,1.78571429 11.147541,1.78571429 C7.43169399,0.714285714 3.27868852,1.9047619 2.07650273,4.28571429 C1.96721311,4.64285714 1.42076503,4.76190476 0.983606557,4.64285714 C0.546448087,4.52380952 0.218579235,4.16666667 0.43715847,3.80952381 C1.8579235,0.714285714 7.10382514,-0.714285714 11.8032787,0.714285714 C12.2404372,0.833333333 12.568306,1.19047619 12.3497268,1.54761905 C12.1311475,1.54761905 12.0218579,1.66666667 11.8032787,1.78571429 Z" id="Path"></path>
                            </g>
                        </g>
                        <g id="Group" transform="translate(147.540984, 67.857143)">
                            <path d="M20.7737705,5 C17.6262295,1.30952381 11.0163934,-0.833333333 5.87540984,0.357142857 C0.73442623,1.54761905 -0.839344262,5.47619048 2.20327869,9.28571429 C3.04262295,10.2380952 4.09180328,11.1904762 5.35081967,11.9047619 C5.56065574,12.0238095 5.7704918,12.1428571 5.98032787,12.2619048 L5.98032787,12.2619048 C5.98032787,12.2619048 5.98032787,12.2619048 6.0852459,12.2619048 C6.0852459,12.2619048 6.0852459,12.2619048 6.0852459,12.2619048 C6.81967213,12.6190476 13.6393443,15.8333333 16.4721311,18.2142857 C16.7868852,18.452381 17.5213115,18.5714286 17.8360656,18.5714286 L23.2918033,17.3809524 C23.6065574,17.2619048 23.8163934,17.0238095 23.7114754,16.7857143 C23.1868852,15.7142857 22.242623,12.3809524 22.347541,8.69047619 C22.347541,8.57142857 22.347541,8.57142857 22.347541,8.45238095 C22.347541,8.45238095 22.347541,8.33333333 22.347541,8.33333333 L22.347541,8.33333333 C22.347541,8.21428571 22.347541,8.0952381 22.347541,7.97619048 C22.0327869,7.14285714 21.6131148,6.07142857 20.7737705,5 Z" id="Path" fill="url(#linearGradient-24)"></path>
                            <path d="M7.3442623,4.52380952 L11.3311475,3.57142857 C11.6459016,3.45238095 12.0655738,3.69047619 12.1704918,4.04761905 L13.1147541,6.9047619 C13.2196721,7.14285714 13.6393443,7.38095238 13.9540984,7.38095238 L15.842623,6.9047619 C16.2622951,6.78571429 16.7868852,7.14285714 16.6819672,7.5 L15.7377049,13.0952381 C15.7377049,13.3333333 15.1081967,13.2142857 14.8983607,12.9761905 L13.5344262,10.1190476 C13.4295082,9.88095238 13.0098361,9.64285714 12.695082,9.76190476 L10.2819672,10.3571429 C9.96721311,10.4761905 9.54754098,10.2380952 9.44262295,10 L6.92459016,5 C7.0295082,4.76190476 7.13442623,4.64285714 7.3442623,4.52380952 Z" id="Path" fill="url(#linearGradient-25)"></path>
                            <path d="M22.242623,8.45238095 C22.242623,8.33333333 22.242623,8.21428571 22.242623,8.0952381 C22.0327869,7.14285714 21.6131148,6.07142857 20.7737705,5.11904762 C17.8360656,1.54761905 11.5409836,-0.476190476 6.50491803,0.357142857 C6.4,0.833333333 6.4,1.19047619 6.60983607,1.66666667 C7.0295082,2.73809524 8.18360656,3.69047619 9.54754098,4.52380952 C10.9114754,5.35714286 12.3803279,6.07142857 13.8491803,6.78571429 C15.5278689,7.61904762 17.1016393,8.45238095 18.3606557,9.4047619 C19.6196721,10.4761905 20.6688525,11.6666667 20.8786885,12.8571429 C21.1934426,14.5238095 20.0393443,15.8333333 20.1442623,17.5 C20.1442623,17.7380952 20.2491803,17.8571429 20.2491803,18.0952381 L23.1868852,17.5 C23.5016393,17.3809524 23.7114754,17.1428571 23.6065574,16.9047619 C23.0819672,15.8333333 22.1377049,12.5 22.242623,8.80952381 C22.242623,8.69047619 22.242623,8.57142857 22.242623,8.45238095 C22.242623,8.45238095 22.242623,8.45238095 22.242623,8.45238095 L22.242623,8.45238095 Z" id="Path" fill="#FFD696" opacity="0.3"></path>
                            <path d="M24.8655738,20.1190476 L20.6688525,21.0714286 C19.8295082,21.3095238 18.7803279,20.952381 18.2557377,20.3571429 L16.2622951,17.9761905 L23.5016393,16.3095238 L25.495082,18.6904762 C25.9147541,19.2857143 25.704918,20 24.8655738,20.1190476 Z" id="Path" fill="url(#linearGradient-26)" fill-rule="nonzero"></path>
                            <path d="M25.495082,18.6904762 L23.5016393,16.3095238 L20.2491803,17.0238095 C20.2491803,17.1428571 20.2491803,17.2619048 20.2491803,17.3809524 C20.3540984,18.452381 21.0885246,19.6428571 22.242623,20.7142857 L24.8655738,20.1190476 C25.704918,20 25.9147541,19.2857143 25.495082,18.6904762 Z" id="Path" fill="#A7E3FF" opacity="0.3"></path>
                        </g>
                        <g id="Group" transform="translate(108.196721, 110.714286)" fill-rule="nonzero">
                            <path d="M10.9289617,4.04081633 C15.6284153,2.57142857 21.3114754,4.16326531 23.4972678,7.71428571 C25.6830601,11.2653061 23.715847,15.3061224 18.9071038,16.8979592 C14.0983607,18.4897959 8.52459016,16.7755102 6.33879781,13.2244898 C4.15300546,9.67346939 6.2295082,5.51020408 10.9289617,4.04081633 Z" id="Path" fill="url(#linearGradient-27)"></path>
                            <path d="M12.1311475,5.87755102 C15.5191257,4.7755102 19.4535519,6 21.0928962,8.44897959 C22.6229508,10.8979592 21.2021858,13.8367347 17.8142077,14.9387755 C14.4262295,16.0408163 10.4918033,14.8163265 8.85245902,12.3673469 C7.32240437,9.79591837 8.7431694,6.97959184 12.1311475,5.87755102 Z" id="Path" fill="url(#linearGradient-28)"></path>
                            <path d="M34.863388,15.3061224 L27.3224044,16.5306122 C25.2459016,16.8979592 23.0601093,16.0408163 22.1857923,14.6938776 L19.1256831,9.79591837 C18.2513661,8.44897959 16.1748634,7.83673469 14.3169399,8.44897959 C12.4590164,9.06122449 11.6939891,10.6530612 12.568306,12 L21.5300546,26.3265306 C22.0765027,27.1836735 20.8743169,28.0408163 19.6721311,27.7959184 L18.1420765,27.4285714 C15.6284153,26.6938776 12.7868852,27.5510204 11.8032787,29.5102041 L11.8032787,29.5102041 L11.4754098,30.122449 C11.147541,30.7346939 11.5846995,31.3469388 12.3497268,31.4693878 L26.7759563,35.877551 C28.5245902,36.3673469 29.9453552,37.3469388 30.7103825,38.6938776 L31.147541,39.4285714 L50.8196721,33.0612245 L41.420765,18.122449 C40.3278689,15.9183673 37.4863388,14.8163265 34.863388,15.3061224 Z" id="Path" fill="url(#linearGradient-29)"></path>
                            <path d="M31.3661202,2.57142857 L31.4754098,0.979591837 C31.5846995,0.244897959 32.6775956,-0.12244898 33.442623,0.367346939 L35.1912568,1.34693878 C35.4098361,1.46938776 35.6284153,1.46938776 35.8469945,1.46938776 L38.0327869,1.59183673 C39.0163934,1.71428571 39.5628415,2.44897959 38.9071038,3.06122449 L37.5956284,4.40816327 C37.4863388,4.53061224 37.3770492,4.65306122 37.3770492,4.89795918 L37.2677596,6.48979592 C37.1584699,7.2244898 36.0655738,7.59183673 35.3005464,7.10204082 L33.5519126,6.12244898 C33.3333333,6 33.1147541,6 32.8961749,6 L30.7103825,5.87755102 C29.726776,5.75510204 29.1803279,5.02040816 29.8360656,4.40816327 L31.147541,3.06122449 C31.2568306,2.81632653 31.3661202,2.69387755 31.3661202,2.57142857 Z" id="Path" fill="#F7931E"></path>
                            <path d="M1.63934426,20.5714286 L1.74863388,19.4693878 C1.74863388,18.9795918 2.62295082,18.7346939 3.16939891,18.9795918 L4.48087432,19.7142857 C4.59016393,19.8367347 4.80874317,19.8367347 4.91803279,19.8367347 L6.55737705,19.9591837 C7.21311475,19.9591837 7.65027322,20.5714286 7.21311475,20.9387755 L6.2295082,21.9183673 C6.12021858,22.0408163 6.12021858,22.1632653 6.01092896,22.2857143 L5.90163934,23.3877551 C5.90163934,23.877551 5.0273224,24.122449 4.48087432,23.877551 L3.16939891,23.1428571 C3.06010929,23.0204082 2.84153005,23.0204082 2.73224044,23.0204082 L1.09289617,22.8979592 C0.43715847,22.8979592 -1.54321e-14,22.2857143 0.43715847,21.9183673 L1.42076503,20.9387755 C1.63934426,20.8163265 1.63934426,20.6938776 1.63934426,20.5714286 Z" id="Path" fill="#F7931E"></path>
                            <path d="M46.010929,16.0408163 L46.1202186,15.0612245 C46.1202186,14.6938776 46.7759563,14.4489796 47.3224044,14.6938776 L48.4153005,15.3061224 C48.5245902,15.4285714 48.6338798,15.4285714 48.7431694,15.4285714 L50.0546448,15.5510204 C50.6010929,15.5510204 50.9289617,16.0408163 50.6010929,16.4081633 L49.8360656,17.1428571 C49.726776,17.2653061 49.726776,17.2653061 49.726776,17.3877551 L49.6174863,18.3673469 C49.6174863,18.7346939 48.9617486,18.9795918 48.4153005,18.7346939 L47.3224044,18.122449 C47.2131148,18 47.1038251,18 46.9945355,18 L45.6830601,17.877551 C45.136612,17.877551 44.8087432,17.3877551 45.136612,17.0204082 L45.9016393,16.2857143 C45.9016393,16.1632653 46.010929,16.0408163 46.010929,16.0408163 Z" id="Path" fill="#F7931E"></path>
                            <path d="M41.5300546,17.877551 C40.3278689,15.9183673 37.4863388,14.9387755 34.7540984,15.4285714 L27.2131148,16.6530612 C26.4480874,16.7755102 25.6830601,16.7755102 25.0273224,16.6530612 C25.2459016,16.8979592 25.5737705,17.1428571 25.7923497,17.2653061 C26.9945355,18 28.5245902,18.4897959 30.1639344,18.8571429 C31.8032787,19.2244898 33.3333333,19.5918367 34.6448087,20.2040816 C37.2677596,21.4285714 39.0163934,23.6326531 39.1256831,25.8367347 C39.2349727,28.2857143 37.4863388,30.4897959 37.8142077,32.8163265 C37.9234973,34.1632653 38.6885246,35.2653061 39.6721311,36.4897959 L50.9289617,32.8163265 L41.5300546,17.877551 Z" id="Path" fill="#FFD696" opacity="0.3"></path>
                            <path d="M55.1912568,34.6530612 L30.7103825,42.4897959 L30.1639344,41.6326531 C29.5081967,40.6530612 30.1639344,39.4285714 31.4754098,39.0612245 L51.0382514,32.8163265 C52.3497268,32.3265306 53.989071,32.8163265 54.6448087,33.7959184 L55.1912568,34.6530612 Z" id="Path" fill="url(#linearGradient-30)"></path>
                        </g>
                        <g id="Group" transform="translate(9.836066, 60.714286)" fill-rule="nonzero">
                            <g>
                                <path d="M28.4900777,17.6136364 L24.6764452,18.5227273 L26.6954271,20.7954545 C28.377912,22.7272727 27.0319241,23.75 26.4710958,23.8636364 C25.1251079,24.2045455 35.1078516,21.7045455 35.1078516,21.7045455 C35.1078516,21.7045455 32.0793788,21.8181818 30.6212252,20.1136364 C29.3874029,18.6363636 28.4900777,17.6136364 28.4900777,17.6136364 Z" id="Path" fill="url(#linearGradient-31)"></path>
                                <path d="M35.5565142,20.7954545 L35.5565142,20.7954545 C35.2200173,20.5681818 34.7713546,20.4545455 34.4348576,20.5681818 L24.6764452,22.9545455 C24.3399482,23.0681818 24.2277826,23.2954545 24.3399482,23.5227273 L24.3399482,23.5227273 C24.5642796,24.0909091 25.4616048,24.6590909 26.0224331,24.5454545 L35.8930112,22.0454545 C36.4538395,21.9318182 36.3416739,21.25 35.5565142,20.7954545 Z" id="Path" fill="url(#linearGradient-32)"></path>
                                <path d="M2.46764452,6.13636364 C7.40293356,6.02272727 16.824849,5.11363636 24.9007765,0.454545455 C26.0224331,-0.227272727 28.1535807,0.340909091 29.2752373,1.59090909 L41.6134599,15.7954545 C42.7351165,17.0454545 42.0621225,18.2954545 40.3796376,18.2954545 C35.5565142,18.4090909 26.3589301,19.2045455 18.0586713,24.0909091 C16.9370147,24.7727273 14.8058671,24.2045455 13.7963762,22.9545455 L1.34598792,8.63636364 C0.22433132,7.38636364 0.78515962,6.13636364 2.46764452,6.13636364 Z" id="Path" fill="url(#linearGradient-33)"></path>
                                <path d="M4.93528904,7.38636364 C9.30974978,7.15909091 17.7221743,6.25 25.1251079,2.27272727 C26.1345988,1.70454545 28.041415,2.15909091 28.8265746,3.06818182 L39.257981,15 C40.0431406,15.9090909 39.4823123,16.9318182 38.0241588,17.0454545 C33.7618637,17.2727273 25.5737705,18.1818182 17.8343399,22.2727273 C16.824849,22.8409091 14.9180328,22.3863636 14.1328732,21.4772727 L3.70146678,9.54545455 C2.8041415,8.52272727 3.47713546,7.5 4.93528904,7.38636364 Z" id="Path" fill="url(#linearGradient-34)"></path>
                                <g transform="translate(11.216566, 0.974026)">
                                    <ellipse id="Oval" fill="#FFFFFF" transform="translate(10.195466, 11.186826) rotate(-68.888035) translate(-10.195466, -11.186826) " cx="10.1954659" cy="11.1868263" rx="4.8784048" ry="8.08988196"></ellipse>
                                    <path d="M7.51509922,8.68506494 L12.4503883,9.70779221 C13.4598792,9.93506494 14.1328732,10.7305195 13.7963762,11.2987013 L12.1138913,14.025974 C11.7773943,14.5941558 10.4314064,14.3668831 9.75841242,13.6850649 L6.61777394,10.0487013 C5.83261432,9.13961039 6.39344262,8.45779221 7.51509922,8.68506494 Z" id="Path" fill="url(#linearGradient-35)"></path>
                                </g>
                                <ellipse id="Oval" fill="#FFFFFF" transform="translate(7.691895, 9.776261) rotate(-68.888035) translate(-7.691895, -9.776261) " cx="7.69189474" cy="9.77626136" rx="1.02106121" ry="1.68539213"></ellipse>
                            </g>
                            <path d="M24.9007765,0.454545455 C20.5263158,3.06818182 15.5910267,4.54545455 11.3287317,5.22727273 C11.553063,5.56818182 11.88956,5.79545455 12.2260569,6.02272727 C13.3477135,6.81818182 14.8058671,7.27272727 16.151855,7.38636364 C19.0681622,7.84090909 21.7601381,7.38636364 24.6764452,7.5 C26.1345988,7.61363636 27.9292494,7.95454545 28.8265746,8.97727273 C29.6117343,9.77272727 29.3874029,10.6818182 29.6117343,11.4772727 C29.8360656,12.5 30.7333909,13.75 31.9672131,14.5454545 C33.4253667,15.5681818 35.3321829,16.3636364 36.0051769,17.5 C36.1173425,17.7272727 36.2295082,18.0681818 36.2295082,18.2954545 C37.7998274,18.1818182 39.257981,18.0681818 40.3796376,18.0681818 C42.0621225,18.0681818 42.6229508,16.8181818 41.6134599,15.5681818 L29.1630716,1.47727273 C28.1535807,0.340909091 26.0224331,-0.227272727 24.9007765,0.454545455 Z" id="Path" fill="#A7E3FF" opacity="0.3"></path>
                        </g>
                        <g id="Group" transform="translate(45.901639, 132.142857)" fill-rule="nonzero">
                            <polygon id="Path" fill="url(#linearGradient-36)" points="27.704918 25 22.9939603 26.1904762 18.2830026 19.6428571 22.9939603 18.452381"></polygon>
                            <path d="M28.377912,9.16666667 C32.6402071,15 30.3968939,21.1904762 23.442623,22.9761905 C16.488352,24.7619048 7.40293356,21.547619 3.25280414,15.7142857 C-1.00949094,9.88095238 1.23382226,3.69047619 8.18809318,1.9047619 C15.1423641,0.119047619 24.2277826,3.33333333 28.377912,9.16666667 Z" id="Path" fill="url(#linearGradient-37)"></path>
                            <path d="M29.3874029,19.047619 C31.1820535,16.3095238 30.9577222,12.6190476 28.377912,9.16666667 C24.3399482,3.57142857 15.8153581,0.357142857 8.9732528,1.66666667 C8.86108714,1.66666667 8.86108714,1.78571429 8.74892148,1.78571429 C8.4124245,2.14285714 7.96376186,2.5 7.96376186,3.0952381 C7.8515962,3.80952381 8.52459016,4.64285714 9.19758412,5.23809524 C9.87057808,5.83333333 10.880069,6.30952381 11.88956,6.78571429 C15.0301984,8.21428571 18.1708369,9.76190476 21.5358067,10.7142857 C23.442623,11.3095238 25.4616048,11.6666667 27.0319241,12.8571429 C28.6022433,14.047619 29.2752373,15.5952381 29.3874029,17.1428571 C29.4995686,17.8571429 29.3874029,18.452381 29.3874029,19.047619 Z" id="Path" fill="#A7E3FF" opacity="0.3"></path>
                            <ellipse id="Oval" fill="#FFFFFF" transform="translate(15.777457, 12.431702) rotate(-72.608720) translate(-15.777457, -12.431702) " cx="15.7774573" cy="12.4317024" rx="8.41162949" ry="12.294062"></ellipse>
                            <path d="M11.4408973,30.8333333 L10.4314064,29.5238095 C9.87057808,28.8095238 10.2070751,27.9761905 10.9922347,27.8571429 L37.6876618,20.952381 C38.5849871,20.7142857 39.7066437,21.1904762 40.267472,21.9047619 L41.2769629,23.2142857 C41.8377912,23.9285714 41.5012942,24.7619048 40.7161346,24.8809524 L14.0207075,31.7857143 C13.1233822,31.9047619 12.0017256,31.547619 11.4408973,30.8333333 Z" id="Path" fill="url(#linearGradient-38)"></path>
                            <path d="M37.7998274,20.8333333 L14.0207075,27.0238095 C14.8058671,27.3809524 15.8153581,27.3809524 16.6005177,27.2619048 C22.2088007,26.6666667 26.8075928,24.5238095 32.3037101,23.6904762 C33.313201,23.5714286 34.5470233,23.452381 35.6686799,23.9285714 C36.6781708,24.2857143 37.4633305,24.8809524 38.3606557,25.3571429 L40.7161346,24.7619048 C41.6134599,24.5238095 41.8377912,23.8095238 41.2769629,23.0952381 L40.267472,21.7857143 C39.8188093,21.0714286 38.6971527,20.5952381 37.7998274,20.8333333 Z" id="Path" fill="#A7E3FF" opacity="0.3"></path>
                            <path d="M31.7428818,27.8571429 L23.8912856,29.8809524 C22.9939603,30.1190476 21.8723037,29.6428571 21.3114754,28.9285714 L19.4046592,26.3095238 C18.8438309,25.5952381 19.1803279,24.7619048 19.9654875,24.6428571 L27.8170837,22.6190476 C28.714409,22.3809524 29.8360656,22.8571429 30.3968939,23.5714286 L32.3037101,26.1904762 C32.8645384,26.9047619 32.5280414,27.6190476 31.7428818,27.8571429 Z" id="Path" fill="url(#linearGradient-39)"></path>
                            <path d="M27.9292494,22.6190476 L20.0776531,24.6428571 C19.1803279,24.8809524 18.9559965,25.5952381 19.5168248,26.3095238 L19.8533218,26.7857143 C23.6669543,26.0714286 27.0319241,24.7619048 30.8455565,24.047619 L30.5090595,23.5714286 C29.8360656,22.8571429 28.714409,22.3809524 27.9292494,22.6190476 Z" id="Path" fill="#A7E3FF" opacity="0.72"></path>
                            <path d="M20.3019845,18.452381 C22.6574633,17.8571429 24.1156169,15.7142857 22.8817947,13.8095238 C21.5358067,11.7857143 19.6289905,10.8333333 18.7316652,10.5952381 C20.0776531,12.6190476 18.2830026,13.8095238 18.2830026,13.8095238 C18.2830026,13.8095238 18.8438309,11.9047619 16.824849,9.88095238 C14.2450388,7.14285714 11.1044003,6.66666667 11.1044003,6.66666667 C11.1044003,6.66666667 13.4598792,8.80952381 12.4503883,10.8333333 C11.4408973,12.8571429 10.880069,13.9285714 12.3382226,15.952381 C14.3572045,18.6904762 18.1708369,18.9285714 20.3019845,18.452381 Z" id="Path" fill="url(#linearGradient-40)"></path>
                            <path d="M21.6479724,12.3809524 C20.5263158,11.3095238 19.2924935,10.7142857 18.6194996,10.4761905 C19.9654875,12.5 18.1708369,13.6904762 18.1708369,13.6904762 C18.1708369,13.6904762 18.7316652,11.7857143 16.7126833,9.76190476 C14.1328732,7.02380952 10.9922347,6.54761905 10.9922347,6.54761905 C10.9922347,6.54761905 13.3477135,8.69047619 12.3382226,10.7142857 C12.1138913,11.0714286 12.0017256,11.4285714 11.7773943,11.7857143 C11.7773943,11.7857143 11.7773943,11.7857143 11.7773943,11.7857143 C12.3382226,12.1428571 13.0112166,12.2619048 13.5720449,12.3809524 C14.2450388,12.5 14.9180328,12.7380952 15.2545298,13.2142857 C15.4788611,13.452381 15.4788611,13.8095238 15.4788611,14.1666667 C15.4788611,14.5238095 15.4788611,15 15.7031924,15.4761905 C15.9275237,15.952381 16.2640207,16.3095238 16.824849,16.547619 C17.2735116,16.7857143 17.8343399,16.7857143 18.2830026,16.6666667 C19.8533218,16.4285714 21.1993097,15.7142857 21.6479724,14.5238095 C21.8723037,14.1666667 21.8723037,13.6904762 21.8723037,13.3333333 C21.9844694,12.9761905 21.8723037,12.6190476 21.6479724,12.3809524 Z" id="Path" fill="#FFD696" opacity="0.3"></path>
                            <ellipse id="Oval" fill="#FFFFFF" transform="translate(28.821146, 23.944619) rotate(-72.608720) translate(-28.821146, -23.944619) " cx="28.8211458" cy="23.944619" rx="1" ry="1"></ellipse>
                            <ellipse id="Oval" fill="#FFFFFF" transform="translate(30.716510, 26.579821) rotate(-72.608720) translate(-30.716510, -26.579821) " cx="30.7165099" cy="26.5798214" rx="1" ry="1"></ellipse>
                            <ellipse id="Oval" fill="#FFFFFF" transform="translate(20.970346, 25.967750) rotate(-72.608720) translate(-20.970346, -25.967750) " cx="20.970346" cy="25.96775" rx="1" ry="1"></ellipse>
                            <ellipse id="Oval" fill="#FFFFFF" transform="translate(22.865710, 28.603071) rotate(-72.608720) translate(-22.865710, -28.603071) " cx="22.8657101" cy="28.6030714" rx="1" ry="1"></ellipse>
                        </g>
                    </g>
                </g>
            </g>
        </g>
    </g>
</svg>