<?xml version="1.0" encoding="UTF-8"?>
<svg width="200px" height="200px" viewBox="0 0 200 200" version="1.1" xmlns="http://www.w3.org/2000/svg" xmlns:xlink="http://www.w3.org/1999/xlink">
    <title>transaksi cepat&amp;aman@1x</title>
    <defs>
        <linearGradient x1="52.0254461%" y1="19.8315271%" x2="49.494382%" y2="55.0480488%" id="linearGradient-1">
            <stop stop-color="#A7E3FF" offset="0%"></stop>
            <stop stop-color="#0095DA" offset="100%"></stop>
        </linearGradient>
        <linearGradient x1="51.0456824%" y1="40.6276573%" x2="45.7944454%" y2="88.1729804%" id="linearGradient-2">
            <stop stop-color="#A7E3FF" offset="0%"></stop>
            <stop stop-color="#0095DA" offset="100%"></stop>
        </linearGradient>
        <linearGradient x1="26.8756955%" y1="33.0549381%" x2="69.5901903%" y2="64.3792019%" id="linearGradient-3">
            <stop stop-color="#A7E3FF" stop-opacity="0" offset="0%"></stop>
            <stop stop-color="#0095DA" offset="100%"></stop>
        </linearGradient>
        <linearGradient x1="50.279491%" y1="39.0642087%" x2="50.0746408%" y2="46.6078736%" id="linearGradient-4">
            <stop stop-color="#A7E3FF" offset="0%"></stop>
            <stop stop-color="#0095DA" offset="100%"></stop>
        </linearGradient>
        <linearGradient x1="50.1792706%" y1="42.3269513%" x2="50.0066114%" y2="47.6080612%" id="linearGradient-5">
            <stop stop-color="#007BB5" offset="0%"></stop>
            <stop stop-color="#123D89" offset="100%"></stop>
        </linearGradient>
        <linearGradient x1="56.6811071%" y1="-8.5516129%" x2="47.3773626%" y2="58.2026114%" id="linearGradient-6">
            <stop stop-color="#F9B260" offset="0%"></stop>
            <stop stop-color="#EB8208" offset="100%"></stop>
        </linearGradient>
        <linearGradient x1="50.0864064%" y1="37.0665511%" x2="44.49411%" y2="105.25338%" id="linearGradient-7">
            <stop stop-color="#F9B260" offset="0%"></stop>
            <stop stop-color="#EB8208" offset="100%"></stop>
        </linearGradient>
        <linearGradient x1="54.2983016%" y1="-21.4014395%" x2="50.6315473%" y2="44.087539%" id="linearGradient-8">
            <stop stop-color="#F9B260" offset="0%"></stop>
            <stop stop-color="#EB8208" offset="100%"></stop>
        </linearGradient>
        <linearGradient x1="50.9126867%" y1="20.7439409%" x2="48.1337862%" y2="92.9941551%" id="linearGradient-9">
            <stop stop-color="#947CC1" offset="0%"></stop>
            <stop stop-color="#7251A1" offset="100%"></stop>
        </linearGradient>
        <linearGradient x1="18.0449249%" y1="24.9218978%" x2="83.466164%" y2="82.868083%" id="linearGradient-10">
            <stop stop-color="#A7E3FF" stop-opacity="0" offset="0%"></stop>
            <stop stop-color="#0095DA" offset="100%"></stop>
        </linearGradient>
        <linearGradient x1="38.3521862%" y1="32.0950435%" x2="67.6427991%" y2="77.1755321%" id="linearGradient-11">
            <stop stop-color="#007BB5" offset="0%"></stop>
            <stop stop-color="#123D89" offset="100%"></stop>
        </linearGradient>
        <linearGradient x1="11.2797727%" y1="26.5681022%" x2="76.0318251%" y2="65.7982857%" id="linearGradient-12">
            <stop stop-color="#A7E3FF" offset="0%"></stop>
            <stop stop-color="#0095DA" offset="100%"></stop>
        </linearGradient>
        <linearGradient x1="-1.3040585%" y1="15.6035491%" x2="98.7393188%" y2="83.0613688%" id="linearGradient-13">
            <stop stop-color="#F9B260" offset="0%"></stop>
            <stop stop-color="#EB8208" offset="100%"></stop>
        </linearGradient>
        <linearGradient x1="25.5401899%" y1="33.9901868%" x2="72.9046217%" y2="65.1052711%" id="linearGradient-14">
            <stop stop-color="#007BB5" offset="0%"></stop>
            <stop stop-color="#123D89" offset="100%"></stop>
        </linearGradient>
        <linearGradient x1="23.2722583%" y1="-13.3404716%" x2="74.1429243%" y2="111.352572%" id="linearGradient-15">
            <stop stop-color="#F9B260" offset="0%"></stop>
            <stop stop-color="#EB8208" offset="100%"></stop>
        </linearGradient>
    </defs>
    <g id="02.-Desktop" stroke="none" stroke-width="1" fill="none" fill-rule="evenodd">
        <g id="Desktop---Gold---Landing-Page" transform="translate(-221.000000, -1429.000000)">
            <g id="usp-items" transform="translate(120.000000, 1397.000000)">
                <g id="usp-1" transform="translate(45.000000, 32.000000)">
                    <g id="transaksi-cepat&amp;aman" transform="translate(56.000000, 0.000000)">
                        <ellipse id="Oval" fill="#DAF3FF" fill-rule="nonzero" cx="98.3606557" cy="100" rx="98.3606557" ry="100"></ellipse>
                        <g id="Group" transform="translate(9.836066, 3.333333)" fill="#A8DAE9" fill-rule="nonzero" opacity="0.8">
                            <path d="M175.639344,60.3248945 L180.087432,63.8734177 C180.327869,63.9957806 180.20765,64.3628692 179.967213,64.4852321 L173.715847,66.443038 C173.47541,66.5654008 173.234973,66.3206751 173.234973,65.9535865 L175.038251,60.4472574 C175.038251,60.2025316 175.398907,60.2025316 175.639344,60.3248945 Z" id="Path"></path>
                            <path d="M122.622951,6.97468354 L126.229508,1.95780591 C126.830601,1.10126582 127.912568,0.978902954 128.754098,1.5907173 L128.754098,1.5907173 C129.595628,2.20253165 129.715847,3.30379747 129.114754,4.16033755 L125.508197,9.17721519 C124.907104,10.0337553 123.825137,10.1561181 122.983607,9.5443038 L122.983607,9.5443038 C122.142077,8.93248945 122.021858,7.83122363 122.622951,6.97468354 Z" id="Path"></path>
                            <path d="M49.7704918,189.172996 L53.3770492,184.156118 C53.9781421,183.299578 55.0601093,183.177215 55.9016393,183.78903 L55.9016393,183.78903 C56.7431694,184.400844 56.863388,185.50211 56.2622951,186.35865 L52.6557377,191.375527 C52.0546448,192.232068 50.9726776,192.35443 50.1311475,191.742616 L50.1311475,191.742616 C49.4098361,191.130802 49.2896175,190.029536 49.7704918,189.172996 Z" id="Path"></path>
                            <g transform="translate(25.245902, 7.341772)" id="Path">
                                <path d="M0.721311475,3.79324895 C0.721311475,5.38396624 2.04371585,6.60759494 3.4863388,6.60759494 C5.04918033,6.60759494 6.25136612,5.26160338 6.25136612,3.79324895 C6.25136612,2.32489451 4.92896175,0.978902954 3.4863388,0.978902954 C2.04371585,0.856540084 0.721311475,2.20253165 0.721311475,3.79324895 Z"></path>
                            </g>
                            <g transform="translate(171.912568, 148.059072)" id="Path">
                                <path d="M0.480874317,3.42616034 C0.480874317,5.01687764 1.80327869,6.24050633 3.24590164,6.24050633 C4.80874317,6.24050633 6.01092896,4.89451477 6.01092896,3.42616034 C6.01092896,1.95780591 4.68852459,0.611814346 3.24590164,0.611814346 C1.68306011,0.489451477 0.480874317,1.83544304 0.480874317,3.42616034 Z"></path>
                            </g>
                            <g transform="translate(0.000000, 162.742616)" id="Path">
                                <path d="M1.08196721,3.54852321 C1.08196721,5.13924051 2.40437158,6.3628692 3.84699454,6.3628692 C5.40983607,6.3628692 6.61202186,5.01687764 6.61202186,3.54852321 C6.61202186,2.08016878 5.28961749,0.734177215 3.84699454,0.734177215 C2.28415301,0.734177215 1.08196721,1.95780591 1.08196721,3.54852321 Z"></path>
                            </g>
                        </g>
                        <g id="Group" transform="translate(6.557377, 10.000000)">
                            <g transform="translate(0.000000, 18.439716)" fill-rule="nonzero" id="Path">
                                <path d="M182.942519,116.170213 L176.683959,114.326241 L100.859099,16.4728132 C96.2855364,10.572104 86.7773397,7.49881797 79.6762814,9.58865248 L7.94355675,30.7328605 C7.46212907,30.855792 6.98070139,31.1016548 6.49927371,31.2245863 L2.04606765,28.7659574 L0.842498444,37.7399527 L0.962855364,37.7399527 C0.601784603,40.0756501 1.32392613,42.6572104 3.24963685,45.1158392 L81.842706,146.65721 C86.4162689,152.55792 95.9244657,155.631206 103.025524,153.541371 L174.758249,132.520095 C178.970741,131.29078 181.498236,128.463357 181.859307,125.144208 L181.979664,125.144208 L182.942519,116.170213 Z" fill="url(#linearGradient-1)"></path>
                                <path d="M175.841461,124.406619 L104.108736,145.427896 C96.887321,147.51773 87.3791243,144.444444 82.9259182,138.543735 L4.21249222,37.0023641 C-0.361070762,31.1016548 1.80535381,24.5862884 8.90641212,22.4964539 L80.6391368,1.4751773 C87.860552,-0.61465721 97.3687487,2.45862884 101.821955,8.35933806 L180.415024,109.900709 C185.108944,115.801418 182.942519,122.316785 175.841461,124.406619 Z" fill="url(#linearGradient-2)"></path>
                                <path d="M176.683959,112.973995 L98.0908902,11.4326241 C95.443038,7.99054374 90.1473335,5.77777778 85.4534136,5.77777778 C84.2498444,5.77777778 83.0462752,5.90070922 81.9630629,6.26950355 L68.4830878,10.2033097 L67.3998755,16.1040189 L34.4220793,25.56974 L27.321021,22.4964539 L10.2303382,27.536643 C8.42498444,28.0283688 7.10105831,29.0118203 6.73998755,30.1182033 C6.37891679,31.2245863 6.86034447,32.5768322 7.94355675,34.0520095 L86.5366259,135.593381 C89.9066196,139.895981 97.3687487,142.231678 102.544096,140.756501 L174.276821,119.735225 C176.082175,119.243499 177.406101,118.260047 177.767172,117.153664 C178.248599,115.92435 177.767172,114.449173 176.683959,112.973995 Z" fill="#FFFFFF"></path>
                                <path d="M103.145881,35.8959811 L77.3894999,2.45862884 L20.9421042,19.0543735 C27.0803071,24.9550827 37.1902884,34.6666667 42.4859929,40.0756501 C50.3091928,48.1891253 46.6984852,58.7612293 46.6984852,58.7612293 L103.145881,35.8959811 Z" fill="url(#linearGradient-3)"></path>
                            </g>
                            <path d="M45.7356298,84.4539007 L107.117659,66.5059102 C110.246939,65.6453901 111.209795,61.7115839 108.923013,59.498818 L108.923013,59.498818 C107.839801,58.5153664 106.275161,58.1465721 104.830878,58.5153664 L43.2081345,76.3404255 C40.4399253,77.2009456 39.2363561,80.3971631 40.921353,82.7328605 L41.1620668,82.9787234 C42.1249222,84.3309693 44.0506329,85.0685579 45.7356298,84.4539007 Z" id="Path" fill="url(#linearGradient-4)" fill-rule="nonzero"></path>
                            <path d="M44.5320606,80.643026 L106.275161,63.0638298 C106.997302,62.8179669 107.238016,62.2033097 107.358373,62.0803783 C107.47873,61.7115839 107.47873,61.3427896 106.997302,60.8510638 C106.756589,60.6052009 106.275161,60.4822695 105.91409,60.4822695 C105.793733,60.4822695 105.553019,60.4822695 105.432662,60.6052009 L43.5692052,77.8156028 C42.8470637,78.0614657 42.6063499,78.5531915 42.6063499,78.6761229 C42.4859929,78.9219858 42.4859929,79.4137116 42.7267068,79.7825059 L42.9674206,80.0283688 C43.2081345,80.643026 43.930276,80.8888889 44.5320606,80.643026 Z" id="Path" fill="url(#linearGradient-5)" fill-rule="nonzero"></path>
                            <path d="M45.1338452,80.5200946 C45.1338452,80.5200946 53.6791866,64.2931442 48.503839,48.9267139 C43.3284914,33.5602837 34.0610085,31.4704492 35.6256485,17.0874704 L93.7580411,0.491725768 C92.1934011,14.8747045 101.460884,16.964539 106.636232,32.3309693 C111.811579,47.6973995 103.266238,63.9243499 103.266238,63.9243499 L45.1338452,80.5200946 Z" id="Path" fill="url(#linearGradient-6)" fill-rule="nonzero"></path>
                            <path d="M94.8412534,21.6359338 C92.1934011,17.7021277 89.4251919,13.6453901 88.4623366,7.74468085 L40.921353,21.2671395 C41.1620668,25.3238771 42.9674206,27.9054374 45.6152729,31.8392435 C48.1427682,35.5271868 51.2720481,40.0756501 53.5588296,47.0827423 C56.5677526,55.8108747 55.4845404,70.8085106 51.7534758,78.6761229 L99.896244,65.0307329 C101.942312,59.498818 105.191949,47.3286052 101.460884,34.2978723 C99.896244,28.643026 97.1280349,25.0780142 94.8412534,21.6359338 Z" id="Path" fill="url(#linearGradient-7)" fill-rule="nonzero"></path>
                            <path d="M83.286989,14.5059102 L83.286989,14.5059102 C84.9719859,14.0141844 86.7773397,14.751773 87.3791243,16.4728132 C88.3419797,18.6855792 89.6659058,21.7588652 91.1101888,23.9716312 C93.0358996,27.0449173 95.5633949,31.1016548 96.6466072,34.9125296 C97.1280349,36.7565012 96.1651795,38.7234043 94.3598257,39.21513 L93.5173272,39.4609929 C91.5916165,40.0756501 89.6659058,38.7234043 89.304835,36.7565012 C88.7030504,33.6832151 87.6198381,29.2576832 85.3330567,26.5531915 C83.4073459,24.0945626 82.0834198,21.2671395 81.2409214,19.0543735 C80.3984229,17.2104019 81.3612783,15.1205674 83.286989,14.5059102 Z" id="Path" fill="#FFFFFF" fill-rule="nonzero"></path>
                            <path d="M81.6019921,52.8605201 C72.0937954,52.8605201 63.668811,60.9739953 62.7059556,71.0543735 C62.5855987,72.6524823 62.5855987,74.1276596 62.8263125,75.6028369 L96.7669641,66.0141844 C95.2023241,58.392435 89.304835,52.8605201 81.6019921,52.8605201 Z" id="Path" fill="url(#linearGradient-8)" fill-rule="nonzero"></path>
                            <g transform="translate(0.000000, 88.510638)" id="Path">
                                <path d="M20.9421042,7.25295508 C15.6463997,14.6288416 7.46212907,16.8416076 2.64785225,19.9148936 C-0.240713841,21.7588652 -0.120356921,28.5200946 2.04606765,31.4704492 C16.8499689,52.2458629 39.5974269,59.8676123 49.5870513,62.2033097 C52.7163312,62.9408983 55.8456111,62.3262411 57.6509649,60.4822695 C63.4280971,54.5815603 74.8620046,39.5839243 68.0016601,17.0874704 C67.0388047,13.891253 63.4280971,11.3096927 59.4563187,10.9408983 C52.7163312,10.3262411 41.7638514,8.97399527 30.8113717,5.04018913 C26.9599502,3.68794326 22.8678149,4.54846336 20.9421042,7.25295508 Z" fill="#7251A1" fill-rule="nonzero"></path>
                                <path d="M20.9421042,2.95035461 C15.6463997,10.3262411 8.1842706,15.858156 3.36999377,18.9314421 C0.481427682,20.7754137 -0.120356921,24.2174941 2.04606765,27.1678487 C16.8499689,47.9432624 39.5974269,55.5650118 49.5870513,57.9007092 C52.7163312,58.6382979 55.8456111,58.0236407 57.6509649,56.179669 C63.4280971,50.2789598 74.8620046,35.2813239 68.0016601,12.78487 C67.0388047,9.58865248 63.4280971,7.0070922 59.4563187,6.63829787 C52.7163312,6.02364066 41.7638514,4.6713948 30.8113717,0.737588652 C26.9599502,-0.61465721 22.8678149,0.245862884 20.9421042,2.95035461 Z" fill="url(#linearGradient-9)" fill-rule="nonzero"></path>
                                <path d="M41.6434945,8.23640662 C45.374559,7.62174941 49.1056236,7.0070922 52.8366881,6.39243499 C53.3181158,6.26950355 53.7995435,6.26950355 54.2809712,6.1465721 C47.7816974,5.28605201 39.2363561,3.8108747 30.8113717,0.737588652 C26.9599502,-0.61465721 22.8678149,0.245862884 20.9421042,2.82742317 C15.6463997,10.2033097 8.1842706,15.7352246 3.36999377,18.8085106 C0.481427682,20.6524823 -0.120356921,24.0945626 2.04606765,27.0449173 C6.49927371,33.3144208 11.6746213,38.3546099 17.0906827,42.4113475 C19.4978211,39.3380615 22.8678149,37.1252955 26.4785225,36.0189125 C28.8856609,35.2813239 31.5335132,34.9125296 33.9406516,33.8061466 C36.34779,32.822695 38.5142146,30.855792 38.9956422,28.2742317 C39.5974269,25.3238771 37.792073,22.3735225 36.2274331,19.7919622 C34.78315,17.0874704 33.4592239,13.7683215 35.1442208,11.1867612 C36.4681469,9.09692671 39.2363561,8.60520095 41.6434945,8.23640662 Z" fill="#FFFFFF" opacity="0.1"></path>
                                <path d="M45.1338452,43.8865248 C43.5692052,44.2553191 41.8842083,43.8865248 40.4399253,43.1489362 L25.8767379,35.035461 C23.2288857,33.5602837 22.3863872,30.855792 23.7103133,29.0118203 C25.1545964,27.1678487 28.4042332,26.7990544 30.9317286,28.1513002 L39.4770699,32.9456265 L45.374559,15.9810875 C46.0967006,13.7683215 49.1056236,12.78487 51.8738327,13.7683215 C54.7623988,14.751773 56.4473957,17.3333333 55.7252542,19.4231678 L48.1427682,41.427896 C47.7816974,42.6572104 46.5781282,43.5177305 45.1338452,43.8865248 C45.1338452,43.8865248 45.1338452,43.8865248 45.1338452,43.8865248 Z" fill="#FFFFFF" fill-rule="nonzero"></path>
                            </g>
                            <path d="M180.535381,128.340426 L145.631874,83.3475177 L85.0923428,99.820331 C82.0834198,100.680851 80.3984229,102.770686 80.1577091,105.229314 C79.1948537,107.44208 79.5559245,110.269504 81.3612783,113.096927 L103.266238,145.79669 C106.515875,150.713948 113.376219,153.541371 118.43121,152.189125 L182.701805,133.01182 C182.461092,131.413712 181.73895,129.815603 180.535381,128.340426 Z" id="Path" fill="url(#linearGradient-10)" fill-rule="nonzero"></path>
                            <g transform="translate(80.639137, 68.841608)" fill-rule="nonzero" id="Path">
                                <path d="M103.266238,53.4751773 L38.9956422,70.9314421 C33.9406516,72.2836879 27.0803071,69.4562648 23.8306703,64.5390071 L1.92571073,31.8392435 C-1.32392613,26.9219858 0.120356921,21.8817967 5.17534758,20.4066194 L69.4459431,2.95035461 C74.5009338,1.59810875 81.3612783,4.42553191 84.6109151,9.3427896 L106.515875,42.0425532 C109.765512,46.9598109 108.321228,52.1229314 103.266238,53.4751773 Z" fill="url(#linearGradient-11)"></path>
                                <path d="M103.747665,51.5082742 L39.4770699,68.964539 C34.4220793,70.3167849 27.5617348,67.4893617 24.3120979,62.572104 L2.40713841,29.9952719 C-0.842498444,25.0780142 0.601784603,20.0378251 5.65677526,18.5626478 L69.9273708,1.10638298 C74.9823615,-0.245862884 81.842706,2.58156028 85.0923428,7.49881797 L106.997302,40.1985816 C110.367296,45.1158392 108.923013,50.1560284 103.747665,51.5082742 Z" fill="url(#linearGradient-12)"></path>
                                <path d="M45.9763436,46.0992908 C48.9852667,44.0094563 51.9941897,41.1820331 52.5959743,37.4940898 C53.7995435,29.8723404 44.5320606,24.5862884 43.0877775,16.964539 C42.4859929,13.891253 43.2081345,10.6950355 44.7727744,7.99054374 L5.53641834,18.6855792 C0.481427682,20.0378251 -0.962855364,25.2009456 2.28678149,30.1182033 L21.3031749,58.392435 C29.8485163,54.4586288 38.5142146,51.3853428 45.9763436,46.0992908 Z" fill="#FFFFFF" opacity="0.15"></path>
                                <path d="M37.0699315,43.1489362 L29.4874455,45.2387707 C27.4413779,45.8534279 24.6731687,44.6241135 23.3492426,42.6572104 L18.4146088,35.2813239 C17.0906827,33.3144208 17.6924673,31.2245863 19.738535,30.7328605 L27.321021,28.643026 C29.3670886,28.0283688 32.1352978,29.2576832 33.4592239,31.2245863 L38.3938576,38.6004728 C39.5974269,40.5673759 39.1159992,42.6572104 37.0699315,43.1489362 Z" fill="url(#linearGradient-13)"></path>
                                <path d="M88.1012658,39.5839243 L35.5052916,53.9669031 C34.4220793,54.212766 32.9777962,53.5981087 32.2556547,52.6146572 L32.2556547,52.6146572 C31.5335132,51.6312057 31.8945839,50.5248227 32.9777962,50.1560284 L85.5737705,35.7730496 C86.6569828,35.5271868 88.1012658,36.141844 88.8234073,37.1252955 L88.8234073,37.1252955 C89.4251919,38.2316785 89.1844781,39.21513 88.1012658,39.5839243 Z" fill="#FFFFFF"></path>
                                <path d="M62.5855987,53.2293144 L39.2363561,59.6217494 C38.1531438,59.8676123 36.7088608,59.2529551 35.9867192,58.2695035 L35.9867192,58.2695035 C35.2645777,57.286052 35.6256485,56.179669 36.7088608,55.8108747 L60.0581033,49.4184397 C61.1413156,49.1725768 62.5855987,49.787234 63.3077402,50.7706856 L63.3077402,50.7706856 C64.0298817,51.8770686 63.668811,52.8605201 62.5855987,53.2293144 Z" fill="#FFFFFF"></path>
                                <path d="M74.3805769,13.5224586 L61.9838141,16.8416076 C60.539531,17.2104019 58.4934634,16.4728132 57.6509649,14.9976359 L57.6509649,14.9976359 C56.6881096,13.5224586 57.1695372,12.0472813 58.6138203,11.678487 L71.0105831,8.35933806 C72.4548662,7.99054374 74.5009338,8.72813239 75.3434322,10.2033097 L75.3434322,10.2033097 C76.1859307,11.678487 75.8248599,13.1536643 74.3805769,13.5224586 Z" fill="#FFFFFF"></path>
                            </g>
                        </g>
                        <g id="Group" transform="translate(124.590164, 23.333333)">
                            <path d="M29.4440485,36.0344828 L49.9215966,30.4712644 C54.6471846,29.2068966 56.7070563,24.908046 53.6778332,21.3678161 L40.4704205,6.1954023 C37.5623664,2.65517241 31.2615823,0.75862069 26.5359943,2.02298851 L5.57377049,7.33333333 C0.848182466,8.59770115 -0.242337847,12.8965517 2.78688525,16.4367816 L15.5096222,31.862069 C18.4176764,35.4022989 24.5972915,37.2988506 29.4440485,36.0344828 Z" id="Path" fill="#1E2F7C"></path>
                            <path d="M29.6863863,34.8965517 L50.1639344,29.3333333 C54.8895225,28.0689655 56.3435495,24.1494253 53.4354954,20.4827586 L40.8339273,5.05747126 C37.9258731,1.51724138 31.6250891,-0.379310345 26.8995011,0.885057471 L6.42195296,6.44827586 C1.69636493,7.71264368 0.242337847,11.6321839 3.15039202,15.2988506 L15.873129,30.7241379 C18.7811832,34.3908046 24.9607983,36.1609195 29.6863863,34.8965517 Z" id="Path" fill="url(#linearGradient-14)"></path>
                            <g transform="translate(16.963649, 8.850575)" id="Path">
                                <path d="M10.6628653,1.13793103 L12.9650748,4.17241379 L17.8118318,2.52873563 C18.7811832,2.27586207 20.1140413,2.65517241 20.598717,3.4137931 L24.2337847,8.97701149 C25.2031361,10.4942529 24.4761226,12.0114943 22.7797577,12.6436782 L15.1461155,15.1724138 C14.6614398,15.2988506 14.0555952,15.1724138 13.8132573,14.7931034 L7.02779758,5.81609195 C6.78545973,5.56321839 6.78545973,5.31034483 6.78545973,5.05747126 L7.1489665,1.51724138 C7.27013542,0.75862069 8.11831789,0.252873563 9.2088382,0.505747126 C9.81468282,0.379310345 10.2993585,0.632183908 10.6628653,1.13793103 Z" fill="#FFFFFF"></path>
                                <path d="M11.6322167,16.3103448 L9.81468282,16.9425287 C8.84533143,17.3218391 7.51247327,16.9425287 6.90662865,16.0574713 L1.33285816,8.72413793 C0.727013542,7.96551724 1.09052031,7.08045977 2.0598717,6.70114943 L3.87740556,6.06896552 C4.36208125,5.94252874 4.96792587,6.06896552 5.33143264,6.44827586 L11.9957234,15.2988506 C12.2380613,15.6781609 12.1168924,16.0574713 11.6322167,16.3103448 Z" fill="url(#linearGradient-15)"></path>
                            </g>
                        </g>
                        <path d="M153.472232,32.3216149 C156.563335,30.5654839 160.24888,30.4484085 163.577761,29.0435037 C163.696649,29.0435037 163.815538,28.9264283 163.934426,28.9264283 C160.724435,26.9361465 156.206669,26.1166188 152.640012,27.0532219 L132.547842,32.2045395 C127.911188,33.3752935 126.484525,37.0046308 129.337851,40.3998173 L137.660051,50 C139.681157,48.7121706 142.534483,48.243869 144.912254,47.658492 C148.716689,46.8389642 153.234454,44.4974563 152.877789,40.7510435 C152.640012,38.4095356 150.618906,36.185103 151.688903,34.0777458 C152.045569,33.2582181 152.7589,32.7899165 153.472232,32.3216149 Z" id="Path" fill="#FFFFFF" opacity="0.15"></path>
                        <path d="M100.166844,13.3333333 L42.7962415,29.4047619 C41.2521052,43.3333333 50.3981433,45.3571429 55.5056711,60.2380952 C56.6934683,63.452381 57.1685871,66.7857143 57.1685871,70 C61.3258772,67.6190476 66.0770658,66.1904762 70.8282544,65.4761905 C74.1540865,65 78.3113765,64.1666667 79.4991737,60.952381 C80.6869708,57.6190476 77.7174779,54.4047619 77.2423591,50.8333333 C76.5296808,45.8333333 80.8057505,41.547619 85.4381594,39.5238095 C90.0705683,37.5 95.1780961,37.0238095 99.5729456,34.5238095 C101.71098,33.3333333 103.611456,31.6666667 104.918033,29.5238095 C101.71098,25 99.3353862,20.952381 100.166844,13.3333333 Z" id="Path" fill="#FFEF5B" opacity="0.15"></path>
                    </g>
                </g>
            </g>
        </g>
    </g>
</svg>